%TF.GenerationSoftware,KiCad,Pcbnew,6.0.0*%
%TF.CreationDate,2022-01-05T16:19:25-05:00*%
%TF.ProjectId,AtomiswaveNetwork,41746f6d-6973-4776-9176-654e6574776f,rev?*%
%TF.SameCoordinates,Original*%
%TF.FileFunction,Soldermask,Bot*%
%TF.FilePolarity,Negative*%
%FSLAX46Y46*%
G04 Gerber Fmt 4.6, Leading zero omitted, Abs format (unit mm)*
G04 Created by KiCad (PCBNEW 6.0.0) date 2022-01-05 16:19:25*
%MOMM*%
%LPD*%
G01*
G04 APERTURE LIST*
%ADD10R,1.200000X1.200000*%
%ADD11C,1.200000*%
G04 APERTURE END LIST*
D10*
%TO.C,U1*%
X132080000Y-91440000D03*
D11*
X134620000Y-91440000D03*
X137160000Y-91440000D03*
X139700000Y-91440000D03*
X142240000Y-91440000D03*
X144780000Y-91440000D03*
X147320000Y-91440000D03*
X149860000Y-91440000D03*
X152400000Y-91440000D03*
X154940000Y-91440000D03*
X157480000Y-91440000D03*
X160020000Y-91440000D03*
X162560000Y-91440000D03*
X133350000Y-93640000D03*
X135890000Y-93640000D03*
X138430000Y-93640000D03*
X140970000Y-93640000D03*
X143510000Y-93640000D03*
X146050000Y-93640000D03*
X148590000Y-93640000D03*
X151130000Y-93640000D03*
X153670000Y-93640000D03*
X156210000Y-93640000D03*
X158750000Y-93640000D03*
X161290000Y-93640000D03*
X132080000Y-95840000D03*
X134620000Y-95840000D03*
X137160000Y-95840000D03*
X139700000Y-95840000D03*
X142240000Y-95840000D03*
X144780000Y-95840000D03*
X147320000Y-95840000D03*
X149860000Y-95840000D03*
X152400000Y-95840000D03*
X154940000Y-95840000D03*
X157480000Y-95840000D03*
X160020000Y-95840000D03*
X162560000Y-95840000D03*
X133350000Y-98040000D03*
X135890000Y-98040000D03*
X138430000Y-98040000D03*
X140970000Y-98040000D03*
X143510000Y-98040000D03*
X146050000Y-98040000D03*
X148590000Y-98040000D03*
X151130000Y-98040000D03*
X153670000Y-98040000D03*
X156210000Y-98040000D03*
X158750000Y-98040000D03*
X161290000Y-98040000D03*
%TD*%
M02*
