%TF.GenerationSoftware,KiCad,Pcbnew,6.0.0*%
%TF.CreationDate,2022-01-05T16:19:24-05:00*%
%TF.ProjectId,AtomiswaveNetwork,41746f6d-6973-4776-9176-654e6574776f,rev?*%
%TF.SameCoordinates,Original*%
%TF.FileFunction,Legend,Top*%
%TF.FilePolarity,Positive*%
%FSLAX46Y46*%
G04 Gerber Fmt 4.6, Leading zero omitted, Abs format (unit mm)*
G04 Created by KiCad (PCBNEW 6.0.0) date 2022-01-05 16:19:24*
%MOMM*%
%LPD*%
G01*
G04 APERTURE LIST*
%ADD10C,0.150000*%
%ADD11C,0.120000*%
G04 APERTURE END LIST*
D10*
X135097333Y-84916666D02*
X135573523Y-84916666D01*
X135002095Y-85202380D02*
X135335428Y-84202380D01*
X135668761Y-85202380D01*
X135859238Y-84535714D02*
X136240190Y-84535714D01*
X136002095Y-84202380D02*
X136002095Y-85059523D01*
X136049714Y-85154761D01*
X136144952Y-85202380D01*
X136240190Y-85202380D01*
X136716380Y-85202380D02*
X136621142Y-85154761D01*
X136573523Y-85107142D01*
X136525904Y-85011904D01*
X136525904Y-84726190D01*
X136573523Y-84630952D01*
X136621142Y-84583333D01*
X136716380Y-84535714D01*
X136859238Y-84535714D01*
X136954476Y-84583333D01*
X137002095Y-84630952D01*
X137049714Y-84726190D01*
X137049714Y-85011904D01*
X137002095Y-85107142D01*
X136954476Y-85154761D01*
X136859238Y-85202380D01*
X136716380Y-85202380D01*
X137478285Y-85202380D02*
X137478285Y-84535714D01*
X137478285Y-84630952D02*
X137525904Y-84583333D01*
X137621142Y-84535714D01*
X137764000Y-84535714D01*
X137859238Y-84583333D01*
X137906857Y-84678571D01*
X137906857Y-85202380D01*
X137906857Y-84678571D02*
X137954476Y-84583333D01*
X138049714Y-84535714D01*
X138192571Y-84535714D01*
X138287809Y-84583333D01*
X138335428Y-84678571D01*
X138335428Y-85202380D01*
X138811619Y-85202380D02*
X138811619Y-84535714D01*
X138811619Y-84202380D02*
X138764000Y-84250000D01*
X138811619Y-84297619D01*
X138859238Y-84250000D01*
X138811619Y-84202380D01*
X138811619Y-84297619D01*
X139240190Y-85154761D02*
X139335428Y-85202380D01*
X139525904Y-85202380D01*
X139621142Y-85154761D01*
X139668761Y-85059523D01*
X139668761Y-85011904D01*
X139621142Y-84916666D01*
X139525904Y-84869047D01*
X139383047Y-84869047D01*
X139287809Y-84821428D01*
X139240190Y-84726190D01*
X139240190Y-84678571D01*
X139287809Y-84583333D01*
X139383047Y-84535714D01*
X139525904Y-84535714D01*
X139621142Y-84583333D01*
X140002095Y-84535714D02*
X140192571Y-85202380D01*
X140383047Y-84726190D01*
X140573523Y-85202380D01*
X140764000Y-84535714D01*
X141573523Y-85202380D02*
X141573523Y-84678571D01*
X141525904Y-84583333D01*
X141430666Y-84535714D01*
X141240190Y-84535714D01*
X141144952Y-84583333D01*
X141573523Y-85154761D02*
X141478285Y-85202380D01*
X141240190Y-85202380D01*
X141144952Y-85154761D01*
X141097333Y-85059523D01*
X141097333Y-84964285D01*
X141144952Y-84869047D01*
X141240190Y-84821428D01*
X141478285Y-84821428D01*
X141573523Y-84773809D01*
X141954476Y-84535714D02*
X142192571Y-85202380D01*
X142430666Y-84535714D01*
X143192571Y-85154761D02*
X143097333Y-85202380D01*
X142906857Y-85202380D01*
X142811619Y-85154761D01*
X142764000Y-85059523D01*
X142764000Y-84678571D01*
X142811619Y-84583333D01*
X142906857Y-84535714D01*
X143097333Y-84535714D01*
X143192571Y-84583333D01*
X143240190Y-84678571D01*
X143240190Y-84773809D01*
X142764000Y-84869047D01*
X144906857Y-85202380D02*
X144430666Y-85202380D01*
X144430666Y-84202380D01*
X145192571Y-84916666D02*
X145668761Y-84916666D01*
X145097333Y-85202380D02*
X145430666Y-84202380D01*
X145764000Y-85202380D01*
X146097333Y-85202380D02*
X146097333Y-84202380D01*
X146668761Y-85202380D01*
X146668761Y-84202380D01*
X147764000Y-84535714D02*
X148144952Y-84535714D01*
X147906857Y-84202380D02*
X147906857Y-85059523D01*
X147954476Y-85154761D01*
X148049714Y-85202380D01*
X148144952Y-85202380D01*
X148621142Y-85202380D02*
X148525904Y-85154761D01*
X148478285Y-85107142D01*
X148430666Y-85011904D01*
X148430666Y-84726190D01*
X148478285Y-84630952D01*
X148525904Y-84583333D01*
X148621142Y-84535714D01*
X148764000Y-84535714D01*
X148859238Y-84583333D01*
X148906857Y-84630952D01*
X148954476Y-84726190D01*
X148954476Y-85011904D01*
X148906857Y-85107142D01*
X148859238Y-85154761D01*
X148764000Y-85202380D01*
X148621142Y-85202380D01*
X150478285Y-84678571D02*
X150144952Y-84678571D01*
X150144952Y-85202380D02*
X150144952Y-84202380D01*
X150621142Y-84202380D01*
X151335428Y-84678571D02*
X151002095Y-84678571D01*
X151002095Y-85202380D02*
X151002095Y-84202380D01*
X151478285Y-84202380D01*
X152430666Y-85107142D02*
X152383047Y-85154761D01*
X152240190Y-85202380D01*
X152144952Y-85202380D01*
X152002095Y-85154761D01*
X151906857Y-85059523D01*
X151859238Y-84964285D01*
X151811619Y-84773809D01*
X151811619Y-84630952D01*
X151859238Y-84440476D01*
X151906857Y-84345238D01*
X152002095Y-84250000D01*
X152144952Y-84202380D01*
X152240190Y-84202380D01*
X152383047Y-84250000D01*
X152430666Y-84297619D01*
X135097333Y-86764761D02*
X135002095Y-86812380D01*
X134811619Y-86812380D01*
X134716380Y-86764761D01*
X134668761Y-86717142D01*
X134621142Y-86621904D01*
X134621142Y-86336190D01*
X134668761Y-86240952D01*
X134716380Y-86193333D01*
X134811619Y-86145714D01*
X135002095Y-86145714D01*
X135097333Y-86193333D01*
X135906857Y-86764761D02*
X135811619Y-86812380D01*
X135621142Y-86812380D01*
X135525904Y-86764761D01*
X135478285Y-86669523D01*
X135478285Y-86288571D01*
X135525904Y-86193333D01*
X135621142Y-86145714D01*
X135811619Y-86145714D01*
X135906857Y-86193333D01*
X135954476Y-86288571D01*
X135954476Y-86383809D01*
X135478285Y-86479047D01*
X136383047Y-86145714D02*
X136383047Y-87145714D01*
X136383047Y-86193333D02*
X136478285Y-86145714D01*
X136668761Y-86145714D01*
X136764000Y-86193333D01*
X136811619Y-86240952D01*
X136859238Y-86336190D01*
X136859238Y-86621904D01*
X136811619Y-86717142D01*
X136764000Y-86764761D01*
X136668761Y-86812380D01*
X136478285Y-86812380D01*
X136383047Y-86764761D01*
X137716380Y-86812380D02*
X137716380Y-86288571D01*
X137668761Y-86193333D01*
X137573523Y-86145714D01*
X137383047Y-86145714D01*
X137287809Y-86193333D01*
X137716380Y-86764761D02*
X137621142Y-86812380D01*
X137383047Y-86812380D01*
X137287809Y-86764761D01*
X137240190Y-86669523D01*
X137240190Y-86574285D01*
X137287809Y-86479047D01*
X137383047Y-86431428D01*
X137621142Y-86431428D01*
X137716380Y-86383809D01*
X138097333Y-86145714D02*
X138287809Y-86812380D01*
X138478285Y-86336190D01*
X138668761Y-86812380D01*
X138859238Y-86145714D01*
X139240190Y-86812380D02*
X139240190Y-86145714D01*
X139240190Y-85812380D02*
X139192571Y-85860000D01*
X139240190Y-85907619D01*
X139287809Y-85860000D01*
X139240190Y-85812380D01*
X139240190Y-85907619D01*
X140097333Y-86764761D02*
X140002095Y-86812380D01*
X139811619Y-86812380D01*
X139716380Y-86764761D01*
X139668761Y-86669523D01*
X139668761Y-86288571D01*
X139716380Y-86193333D01*
X139811619Y-86145714D01*
X140002095Y-86145714D01*
X140097333Y-86193333D01*
X140144952Y-86288571D01*
X140144952Y-86383809D01*
X139668761Y-86479047D01*
X140716380Y-86812380D02*
X140621142Y-86764761D01*
X140573523Y-86669523D01*
X140573523Y-85812380D01*
X141811619Y-85764761D02*
X140954476Y-87050476D01*
X142097333Y-86526666D02*
X142573523Y-86526666D01*
X142002095Y-86812380D02*
X142335428Y-85812380D01*
X142668761Y-86812380D01*
X142906857Y-85812380D02*
X143144952Y-86812380D01*
X143335428Y-86098095D01*
X143525904Y-86812380D01*
X143764000Y-85812380D01*
X143906857Y-86907619D02*
X144668761Y-86907619D01*
X145383047Y-86812380D02*
X144906857Y-86812380D01*
X144906857Y-85812380D01*
X145668761Y-86526666D02*
X146144952Y-86526666D01*
X145573523Y-86812380D02*
X145906857Y-85812380D01*
X146240190Y-86812380D01*
X146573523Y-86812380D02*
X146573523Y-85812380D01*
X147144952Y-86812380D01*
X147144952Y-85812380D01*
X147383047Y-86907619D02*
X148144952Y-86907619D01*
X148240190Y-86145714D02*
X148621142Y-86145714D01*
X148383047Y-85812380D02*
X148383047Y-86669523D01*
X148430666Y-86764761D01*
X148525904Y-86812380D01*
X148621142Y-86812380D01*
X149097333Y-86812380D02*
X149002095Y-86764761D01*
X148954476Y-86717142D01*
X148906857Y-86621904D01*
X148906857Y-86336190D01*
X148954476Y-86240952D01*
X149002095Y-86193333D01*
X149097333Y-86145714D01*
X149240190Y-86145714D01*
X149335428Y-86193333D01*
X149383047Y-86240952D01*
X149430666Y-86336190D01*
X149430666Y-86621904D01*
X149383047Y-86717142D01*
X149335428Y-86764761D01*
X149240190Y-86812380D01*
X149097333Y-86812380D01*
X149621142Y-86907619D02*
X150383047Y-86907619D01*
X150954476Y-86288571D02*
X150621142Y-86288571D01*
X150621142Y-86812380D02*
X150621142Y-85812380D01*
X151097333Y-85812380D01*
X151811619Y-86288571D02*
X151478285Y-86288571D01*
X151478285Y-86812380D02*
X151478285Y-85812380D01*
X151954476Y-85812380D01*
X152906857Y-86717142D02*
X152859238Y-86764761D01*
X152716380Y-86812380D01*
X152621142Y-86812380D01*
X152478285Y-86764761D01*
X152383047Y-86669523D01*
X152335428Y-86574285D01*
X152287809Y-86383809D01*
X152287809Y-86240952D01*
X152335428Y-86050476D01*
X152383047Y-85955238D01*
X152478285Y-85860000D01*
X152621142Y-85812380D01*
X152716380Y-85812380D01*
X152859238Y-85860000D01*
X152906857Y-85907619D01*
X142240190Y-87422380D02*
X142573523Y-88422380D01*
X142906857Y-87422380D01*
X143764000Y-88422380D02*
X143192571Y-88422380D01*
X143478285Y-88422380D02*
X143478285Y-87422380D01*
X143383047Y-87565238D01*
X143287809Y-87660476D01*
X143192571Y-87708095D01*
X144192571Y-88327142D02*
X144240190Y-88374761D01*
X144192571Y-88422380D01*
X144144952Y-88374761D01*
X144192571Y-88327142D01*
X144192571Y-88422380D01*
X144859238Y-87422380D02*
X144954476Y-87422380D01*
X145049714Y-87470000D01*
X145097333Y-87517619D01*
X145144952Y-87612857D01*
X145192571Y-87803333D01*
X145192571Y-88041428D01*
X145144952Y-88231904D01*
X145097333Y-88327142D01*
X145049714Y-88374761D01*
X144954476Y-88422380D01*
X144859238Y-88422380D01*
X144764000Y-88374761D01*
X144716380Y-88327142D01*
X144668761Y-88231904D01*
X144621142Y-88041428D01*
X144621142Y-87803333D01*
X144668761Y-87612857D01*
X144716380Y-87517619D01*
X144764000Y-87470000D01*
X144859238Y-87422380D01*
%TO.C,U2*%
X142494095Y-78782380D02*
X142494095Y-79591904D01*
X142541714Y-79687142D01*
X142589333Y-79734761D01*
X142684571Y-79782380D01*
X142875047Y-79782380D01*
X142970285Y-79734761D01*
X143017904Y-79687142D01*
X143065523Y-79591904D01*
X143065523Y-78782380D01*
X143494095Y-78877619D02*
X143541714Y-78830000D01*
X143636952Y-78782380D01*
X143875047Y-78782380D01*
X143970285Y-78830000D01*
X144017904Y-78877619D01*
X144065523Y-78972857D01*
X144065523Y-79068095D01*
X144017904Y-79210952D01*
X143446476Y-79782380D01*
X144065523Y-79782380D01*
%TO.C,U1*%
X128778095Y-97242380D02*
X128778095Y-98051904D01*
X128825714Y-98147142D01*
X128873333Y-98194761D01*
X128968571Y-98242380D01*
X129159047Y-98242380D01*
X129254285Y-98194761D01*
X129301904Y-98147142D01*
X129349523Y-98051904D01*
X129349523Y-97242380D01*
X130349523Y-98242380D02*
X129778095Y-98242380D01*
X130063809Y-98242380D02*
X130063809Y-97242380D01*
X129968571Y-97385238D01*
X129873333Y-97480476D01*
X129778095Y-97528095D01*
X162956904Y-97492380D02*
X162480714Y-97492380D01*
X162433095Y-97968571D01*
X162480714Y-97920952D01*
X162575952Y-97873333D01*
X162814047Y-97873333D01*
X162909285Y-97920952D01*
X162956904Y-97968571D01*
X163004523Y-98063809D01*
X163004523Y-98301904D01*
X162956904Y-98397142D01*
X162909285Y-98444761D01*
X162814047Y-98492380D01*
X162575952Y-98492380D01*
X162480714Y-98444761D01*
X162433095Y-98397142D01*
X163623571Y-97492380D02*
X163718809Y-97492380D01*
X163814047Y-97540000D01*
X163861666Y-97587619D01*
X163909285Y-97682857D01*
X163956904Y-97873333D01*
X163956904Y-98111428D01*
X163909285Y-98301904D01*
X163861666Y-98397142D01*
X163814047Y-98444761D01*
X163718809Y-98492380D01*
X163623571Y-98492380D01*
X163528333Y-98444761D01*
X163480714Y-98397142D01*
X163433095Y-98301904D01*
X163385476Y-98111428D01*
X163385476Y-97873333D01*
X163433095Y-97682857D01*
X163480714Y-97587619D01*
X163528333Y-97540000D01*
X163623571Y-97492380D01*
X131095714Y-91892380D02*
X130524285Y-91892380D01*
X130810000Y-91892380D02*
X130810000Y-90892380D01*
X130714761Y-91035238D01*
X130619523Y-91130476D01*
X130524285Y-91178095D01*
D11*
%TO.C,U2*%
X155756000Y-80300000D02*
X155756000Y-77560000D01*
X158566000Y-77560000D02*
X158566000Y-79720000D01*
X155756000Y-77560000D02*
X158566000Y-77560000D01*
X158566000Y-79720000D02*
X155756000Y-79720000D01*
X155756000Y-80300000D02*
X130756000Y-80300000D01*
X155756000Y-79720000D02*
X155756000Y-82260000D01*
X130756000Y-80300000D02*
X130756000Y-77560000D01*
X155756000Y-82260000D02*
X130756000Y-82260000D01*
X127946000Y-79720000D02*
X130756000Y-79720000D01*
X130756000Y-77560000D02*
X127946000Y-77560000D01*
X130756000Y-79720000D02*
X130756000Y-82260000D01*
X127946000Y-77560000D02*
X127946000Y-79720000D01*
%TO.C,U1*%
X167640000Y-99060000D02*
X167640000Y-90170000D01*
X167640000Y-90170000D02*
X127000000Y-90170000D01*
X127000000Y-99060000D02*
X127000000Y-90170000D01*
X167640000Y-99060000D02*
X127000000Y-99060000D01*
%TD*%
M02*
