M48
; DRILL file {KiCad 6.0.0} date Wed 05 Jan 2022 04:19:12 PM EST
; FORMAT={-:-/ absolute / metric / decimal}
; #@! TF.CreationDate,2022-01-05T16:19:12-05:00
; #@! TF.GenerationSoftware,Kicad,Pcbnew,6.0.0
; #@! TF.FileFunction,Plated,1,2,PTH
FMAT,2
METRIC
; #@! TA.AperFunction,Plated,PTH,ViaDrill
T1C0.300
; #@! TA.AperFunction,Plated,PTH,ComponentDrill
T2C0.800
%
G90
G05
T1
X129.54Y-81.28
X129.54Y-83.82
X129.54Y-86.36
X129.54Y-88.9
X129.54Y-91.44
X132.08Y-78.74
X132.08Y-83.82
X132.08Y-86.36
X132.08Y-88.9
X134.62Y-78.74
X134.62Y-83.82
X134.62Y-86.36
X134.62Y-88.9
X137.16Y-78.74
X139.7Y-78.74
X142.24Y-78.74
X144.272Y-83.82
X144.272Y-86.36
X144.272Y-88.9
X144.78Y-78.74
X147.066Y-83.058
X147.066Y-84.074
X147.066Y-85.09
X147.32Y-78.74
X149.86Y-78.74
X152.4Y-78.74
X152.4Y-88.9
X154.94Y-78.74
X154.94Y-83.82
X157.48Y-81.28
X157.48Y-83.82
X157.48Y-86.36
X160.02Y-88.9
X162.56Y-88.9
X165.1Y-88.9
X165.1Y-91.44
T2
X132.08Y-91.44
X132.08Y-95.84
X133.35Y-93.64
X133.35Y-98.04
X134.62Y-91.44
X134.62Y-95.84
X135.89Y-93.64
X135.89Y-98.04
X137.16Y-91.44
X137.16Y-95.84
X138.43Y-93.64
X138.43Y-98.04
X139.7Y-91.44
X139.7Y-95.84
X140.97Y-93.64
X140.97Y-98.04
X142.24Y-91.44
X142.24Y-95.84
X143.51Y-93.64
X143.51Y-98.04
X144.78Y-91.44
X144.78Y-95.84
X146.05Y-93.64
X146.05Y-98.04
X147.32Y-91.44
X147.32Y-95.84
X148.59Y-93.64
X148.59Y-98.04
X149.86Y-91.44
X149.86Y-95.84
X151.13Y-93.64
X151.13Y-98.04
X152.4Y-91.44
X152.4Y-95.84
X153.67Y-93.64
X153.67Y-98.04
X154.94Y-91.44
X154.94Y-95.84
X156.21Y-93.64
X156.21Y-98.04
X157.48Y-91.44
X157.48Y-95.84
X158.75Y-93.64
X158.75Y-98.04
X160.02Y-91.44
X160.02Y-95.84
X161.29Y-93.64
X161.29Y-98.04
X162.56Y-91.44
X162.56Y-95.84
T0
M30
