%TF.GenerationSoftware,KiCad,Pcbnew,6.0.0*%
%TF.CreationDate,2022-01-05T16:19:24-05:00*%
%TF.ProjectId,AtomiswaveNetwork,41746f6d-6973-4776-9176-654e6574776f,rev?*%
%TF.SameCoordinates,Original*%
%TF.FileFunction,Copper,L2,Bot*%
%TF.FilePolarity,Positive*%
%FSLAX46Y46*%
G04 Gerber Fmt 4.6, Leading zero omitted, Abs format (unit mm)*
G04 Created by KiCad (PCBNEW 6.0.0) date 2022-01-05 16:19:24*
%MOMM*%
%LPD*%
G01*
G04 APERTURE LIST*
%TA.AperFunction,ComponentPad*%
%ADD10R,1.200000X1.200000*%
%TD*%
%TA.AperFunction,ComponentPad*%
%ADD11C,1.200000*%
%TD*%
%TA.AperFunction,ViaPad*%
%ADD12C,0.500000*%
%TD*%
G04 APERTURE END LIST*
D10*
%TO.P,U1,1,GND*%
%TO.N,GND*%
X132080000Y-91440000D03*
D11*
%TO.P,U1,2,GND*%
X134620000Y-91440000D03*
%TO.P,U1,3,AD3_D3*%
%TO.N,/AD3_D3*%
X137160000Y-91440000D03*
%TO.P,U1,4,AD7_D7*%
%TO.N,/AD7_D7*%
X139700000Y-91440000D03*
%TO.P,U1,5,AD11_A3*%
%TO.N,/AD11_A3*%
X142240000Y-91440000D03*
%TO.P,U1,6,AD15_A7*%
%TO.N,/AD15_A7*%
X144780000Y-91440000D03*
%TO.P,U1,7*%
%TO.N,N/C*%
X147320000Y-91440000D03*
%TO.P,U1,8,LBE_WE_n*%
%TO.N,/LBE_WE_n*%
X149860000Y-91440000D03*
%TO.P,U1,9,CLK*%
%TO.N,/CLK*%
X152400000Y-91440000D03*
%TO.P,U1,10*%
%TO.N,N/C*%
X154940000Y-91440000D03*
%TO.P,U1,11,GND*%
%TO.N,GND*%
X157480000Y-91440000D03*
%TO.P,U1,12,3.3V*%
%TO.N,+3V3*%
X160020000Y-91440000D03*
%TO.P,U1,13*%
%TO.N,N/C*%
X162560000Y-91440000D03*
%TO.P,U1,14,GND*%
%TO.N,GND*%
X133350000Y-93640000D03*
%TO.P,U1,15,AD1_D1*%
%TO.N,/AD1_D1*%
X135890000Y-93640000D03*
%TO.P,U1,16,AD5_D5*%
%TO.N,/AD5_D5*%
X138430000Y-93640000D03*
%TO.P,U1,17,AD9_A1*%
%TO.N,/AD9_A1*%
X140970000Y-93640000D03*
%TO.P,U1,18,AD13_A5*%
%TO.N,/AD13_A5*%
X143510000Y-93640000D03*
%TO.P,U1,19,GND*%
%TO.N,GND*%
X146050000Y-93640000D03*
%TO.P,U1,20,BTB_n*%
%TO.N,/BTB_n*%
X148590000Y-93640000D03*
%TO.P,U1,21,RESET_n*%
%TO.N,/RESET_n*%
X151130000Y-93640000D03*
%TO.P,U1,22*%
%TO.N,N/C*%
X153670000Y-93640000D03*
%TO.P,U1,23,GND*%
%TO.N,GND*%
X156210000Y-93640000D03*
%TO.P,U1,24,3.3V*%
%TO.N,+3V3*%
X158750000Y-93640000D03*
%TO.P,U1,25*%
%TO.N,N/C*%
X161290000Y-93640000D03*
%TO.P,U1,26,GND*%
%TO.N,GND*%
X132080000Y-95840000D03*
%TO.P,U1,27,GND*%
X134620000Y-95840000D03*
%TO.P,U1,28,AD2_D2*%
%TO.N,/AD2_D2*%
X137160000Y-95840000D03*
%TO.P,U1,29,AD6_D6*%
%TO.N,/AD6_D6*%
X139700000Y-95840000D03*
%TO.P,U1,30,AD10_A2*%
%TO.N,/AD10_A2*%
X142240000Y-95840000D03*
%TO.P,U1,31,AD14_A6*%
%TO.N,/AD14_A6*%
X144780000Y-95840000D03*
%TO.P,U1,32,BTA_n*%
%TO.N,/BTA_n*%
X147320000Y-95840000D03*
%TO.P,U1,33,UBE_RD_n*%
%TO.N,/UBE_RD_n*%
X149860000Y-95840000D03*
%TO.P,U1,34,GND*%
%TO.N,GND*%
X152400000Y-95840000D03*
%TO.P,U1,35*%
%TO.N,N/C*%
X154940000Y-95840000D03*
%TO.P,U1,36,GND*%
%TO.N,GND*%
X157480000Y-95840000D03*
%TO.P,U1,37,3.3V*%
%TO.N,+3V3*%
X160020000Y-95840000D03*
%TO.P,U1,38*%
%TO.N,N/C*%
X162560000Y-95840000D03*
%TO.P,U1,39,GND*%
%TO.N,GND*%
X133350000Y-98040000D03*
%TO.P,U1,40,AD0_D0*%
%TO.N,/AD0_D0*%
X135890000Y-98040000D03*
%TO.P,U1,41,AD4_D4*%
%TO.N,/AD4_D4*%
X138430000Y-98040000D03*
%TO.P,U1,42,AD8_A0*%
%TO.N,/AD8_A0*%
X140970000Y-98040000D03*
%TO.P,U1,43,AD12_A4*%
%TO.N,/AD12_A4*%
X143510000Y-98040000D03*
%TO.P,U1,44,IRQB_n*%
%TO.N,/IRQB_n*%
X146050000Y-98040000D03*
%TO.P,U1,45,AEN_n*%
%TO.N,/AEN_n*%
X148590000Y-98040000D03*
%TO.P,U1,46,GND*%
%TO.N,GND*%
X151130000Y-98040000D03*
%TO.P,U1,47,GND*%
X153670000Y-98040000D03*
%TO.P,U1,48,GND*%
X156210000Y-98040000D03*
%TO.P,U1,49,3.3V*%
%TO.N,+3V3*%
X158750000Y-98040000D03*
%TO.P,U1,50*%
%TO.N,N/C*%
X161290000Y-98040000D03*
%TD*%
D12*
%TO.N,GND*%
X160020000Y-88900000D03*
X157480000Y-83820000D03*
X132080000Y-78740000D03*
X165100000Y-88900000D03*
X129540000Y-88900000D03*
X134620000Y-83820000D03*
X137160000Y-78740000D03*
X129540000Y-83820000D03*
X129540000Y-86360000D03*
X132080000Y-83820000D03*
X147320000Y-78740000D03*
X162560000Y-88900000D03*
X144272000Y-83820000D03*
X157480000Y-81280000D03*
X142240000Y-78740000D03*
X144780000Y-78740000D03*
X134620000Y-86360000D03*
X134620000Y-78740000D03*
X132080000Y-88900000D03*
X165100000Y-91440000D03*
X144272000Y-86360000D03*
X154940000Y-78740000D03*
X157480000Y-86360000D03*
X152400000Y-78740000D03*
X129540000Y-81280000D03*
X134620000Y-88900000D03*
X132080000Y-86360000D03*
X154940000Y-83820000D03*
X139700000Y-78740000D03*
X149860000Y-78740000D03*
X152400000Y-88900000D03*
X144272000Y-88900000D03*
X129540000Y-91440000D03*
%TO.N,+3V3*%
X147066000Y-85090000D03*
X147066000Y-83058000D03*
X147066000Y-84074000D03*
%TD*%
%TA.AperFunction,Conductor*%
%TO.N,GND*%
G36*
X159620694Y-76599306D02*
G01*
X159639000Y-76643500D01*
X159639000Y-87341623D01*
X159637674Y-87348936D01*
X159637803Y-87348945D01*
X159637146Y-87357899D01*
X159633994Y-87366306D01*
X159638438Y-87386947D01*
X159639000Y-87390083D01*
X159639000Y-87394277D01*
X159642172Y-87405087D01*
X159643299Y-87409527D01*
X159649678Y-87439157D01*
X159650049Y-87439654D01*
X159652670Y-87442275D01*
X159652751Y-87442453D01*
X159653353Y-87443200D01*
X159654616Y-87447507D01*
X159661397Y-87453391D01*
X159677801Y-87467626D01*
X159681032Y-87470637D01*
X160667888Y-88457493D01*
X160672123Y-88463603D01*
X160672221Y-88463519D01*
X160678087Y-88470315D01*
X160681803Y-88478488D01*
X160689345Y-88483358D01*
X160689346Y-88483359D01*
X160699542Y-88489943D01*
X160702159Y-88491764D01*
X160705121Y-88494726D01*
X160715000Y-88500123D01*
X160718934Y-88502463D01*
X160738750Y-88515259D01*
X160738753Y-88515260D01*
X160744407Y-88518911D01*
X160745021Y-88519000D01*
X160748732Y-88519000D01*
X160748913Y-88519068D01*
X160749863Y-88519170D01*
X160753803Y-88521323D01*
X160784409Y-88519156D01*
X160788824Y-88519000D01*
X167704500Y-88519000D01*
X167748694Y-88537306D01*
X167767000Y-88581500D01*
X167767000Y-99378500D01*
X167748694Y-99422694D01*
X167704500Y-99441000D01*
X126935500Y-99441000D01*
X126891306Y-99422694D01*
X126873000Y-99378500D01*
X126873000Y-98600152D01*
X132884971Y-98600152D01*
X132887395Y-98606151D01*
X133017220Y-98691106D01*
X133023408Y-98694232D01*
X133169739Y-98748651D01*
X133176469Y-98750330D01*
X133331219Y-98770978D01*
X133338155Y-98771124D01*
X133493632Y-98756973D01*
X133500430Y-98755578D01*
X133648903Y-98707336D01*
X133655229Y-98704466D01*
X133789324Y-98624530D01*
X133794856Y-98620331D01*
X133809248Y-98606625D01*
X133812921Y-98598337D01*
X133809178Y-98588980D01*
X133358791Y-98138593D01*
X133350000Y-98134952D01*
X133341209Y-98138593D01*
X132888734Y-98591068D01*
X132884971Y-98600152D01*
X126873000Y-98600152D01*
X126873000Y-98033262D01*
X132618812Y-98033262D01*
X132634046Y-98188634D01*
X132635489Y-98195421D01*
X132684766Y-98343553D01*
X132687682Y-98349863D01*
X132768551Y-98483394D01*
X132772787Y-98488895D01*
X132783074Y-98499547D01*
X132791504Y-98503213D01*
X132800701Y-98499497D01*
X133251407Y-98048791D01*
X133255048Y-98040000D01*
X133444952Y-98040000D01*
X133448593Y-98048791D01*
X133901457Y-98501655D01*
X133910653Y-98505464D01*
X133914704Y-98503843D01*
X133998761Y-98377327D01*
X134001938Y-98371146D01*
X134057377Y-98225202D01*
X134059100Y-98218489D01*
X134081042Y-98062369D01*
X134081342Y-98058464D01*
X134081573Y-98041962D01*
X134081381Y-98038045D01*
X134080454Y-98029778D01*
X135157968Y-98029778D01*
X135173895Y-98192213D01*
X135174997Y-98195525D01*
X135174997Y-98195526D01*
X135184913Y-98225333D01*
X135225413Y-98347082D01*
X135227223Y-98350071D01*
X135227225Y-98350075D01*
X135243730Y-98377327D01*
X135309962Y-98486689D01*
X135423340Y-98604095D01*
X135559911Y-98693465D01*
X135712888Y-98750356D01*
X135716343Y-98750817D01*
X135716347Y-98750818D01*
X135806518Y-98762849D01*
X135874668Y-98771942D01*
X135878141Y-98771626D01*
X135878144Y-98771626D01*
X135956741Y-98764473D01*
X136037210Y-98757150D01*
X136192435Y-98706714D01*
X136262532Y-98664928D01*
X136329627Y-98624932D01*
X136329630Y-98624930D01*
X136332629Y-98623142D01*
X136395552Y-98563221D01*
X136448294Y-98512996D01*
X136448297Y-98512993D01*
X136450823Y-98510587D01*
X136541144Y-98374643D01*
X136599103Y-98222067D01*
X136621818Y-98060442D01*
X136621953Y-98050785D01*
X136622076Y-98041968D01*
X136622076Y-98041961D01*
X136622103Y-98040000D01*
X136621347Y-98033262D01*
X136620956Y-98029778D01*
X137697968Y-98029778D01*
X137713895Y-98192213D01*
X137714997Y-98195525D01*
X137714997Y-98195526D01*
X137724913Y-98225333D01*
X137765413Y-98347082D01*
X137767223Y-98350071D01*
X137767225Y-98350075D01*
X137783730Y-98377327D01*
X137849962Y-98486689D01*
X137963340Y-98604095D01*
X138099911Y-98693465D01*
X138252888Y-98750356D01*
X138256343Y-98750817D01*
X138256347Y-98750818D01*
X138346518Y-98762849D01*
X138414668Y-98771942D01*
X138418141Y-98771626D01*
X138418144Y-98771626D01*
X138496741Y-98764473D01*
X138577210Y-98757150D01*
X138732435Y-98706714D01*
X138802532Y-98664928D01*
X138869627Y-98624932D01*
X138869630Y-98624930D01*
X138872629Y-98623142D01*
X138935552Y-98563221D01*
X138988294Y-98512996D01*
X138988297Y-98512993D01*
X138990823Y-98510587D01*
X139081144Y-98374643D01*
X139139103Y-98222067D01*
X139161818Y-98060442D01*
X139161953Y-98050785D01*
X139162076Y-98041968D01*
X139162076Y-98041961D01*
X139162103Y-98040000D01*
X139161347Y-98033262D01*
X139160956Y-98029778D01*
X140237968Y-98029778D01*
X140253895Y-98192213D01*
X140254997Y-98195525D01*
X140254997Y-98195526D01*
X140264913Y-98225333D01*
X140305413Y-98347082D01*
X140307223Y-98350071D01*
X140307225Y-98350075D01*
X140323730Y-98377327D01*
X140389962Y-98486689D01*
X140503340Y-98604095D01*
X140639911Y-98693465D01*
X140792888Y-98750356D01*
X140796343Y-98750817D01*
X140796347Y-98750818D01*
X140886518Y-98762849D01*
X140954668Y-98771942D01*
X140958141Y-98771626D01*
X140958144Y-98771626D01*
X141036741Y-98764473D01*
X141117210Y-98757150D01*
X141272435Y-98706714D01*
X141342532Y-98664928D01*
X141409627Y-98624932D01*
X141409630Y-98624930D01*
X141412629Y-98623142D01*
X141475552Y-98563221D01*
X141528294Y-98512996D01*
X141528297Y-98512993D01*
X141530823Y-98510587D01*
X141621144Y-98374643D01*
X141679103Y-98222067D01*
X141701818Y-98060442D01*
X141701953Y-98050785D01*
X141702076Y-98041968D01*
X141702076Y-98041961D01*
X141702103Y-98040000D01*
X141701347Y-98033262D01*
X141700956Y-98029778D01*
X142777968Y-98029778D01*
X142793895Y-98192213D01*
X142794997Y-98195525D01*
X142794997Y-98195526D01*
X142804913Y-98225333D01*
X142845413Y-98347082D01*
X142847223Y-98350071D01*
X142847225Y-98350075D01*
X142863730Y-98377327D01*
X142929962Y-98486689D01*
X143043340Y-98604095D01*
X143179911Y-98693465D01*
X143332888Y-98750356D01*
X143336343Y-98750817D01*
X143336347Y-98750818D01*
X143426518Y-98762849D01*
X143494668Y-98771942D01*
X143498141Y-98771626D01*
X143498144Y-98771626D01*
X143576741Y-98764473D01*
X143657210Y-98757150D01*
X143812435Y-98706714D01*
X143882532Y-98664928D01*
X143949627Y-98624932D01*
X143949630Y-98624930D01*
X143952629Y-98623142D01*
X144015552Y-98563221D01*
X144068294Y-98512996D01*
X144068297Y-98512993D01*
X144070823Y-98510587D01*
X144161144Y-98374643D01*
X144219103Y-98222067D01*
X144241818Y-98060442D01*
X144241953Y-98050785D01*
X144242076Y-98041968D01*
X144242076Y-98041961D01*
X144242103Y-98040000D01*
X144241347Y-98033262D01*
X144240956Y-98029778D01*
X145317968Y-98029778D01*
X145333895Y-98192213D01*
X145334997Y-98195525D01*
X145334997Y-98195526D01*
X145344913Y-98225333D01*
X145385413Y-98347082D01*
X145387223Y-98350071D01*
X145387225Y-98350075D01*
X145403730Y-98377327D01*
X145469962Y-98486689D01*
X145583340Y-98604095D01*
X145719911Y-98693465D01*
X145872888Y-98750356D01*
X145876343Y-98750817D01*
X145876347Y-98750818D01*
X145966518Y-98762849D01*
X146034668Y-98771942D01*
X146038141Y-98771626D01*
X146038144Y-98771626D01*
X146116741Y-98764473D01*
X146197210Y-98757150D01*
X146352435Y-98706714D01*
X146422532Y-98664928D01*
X146489627Y-98624932D01*
X146489630Y-98624930D01*
X146492629Y-98623142D01*
X146555552Y-98563221D01*
X146608294Y-98512996D01*
X146608297Y-98512993D01*
X146610823Y-98510587D01*
X146701144Y-98374643D01*
X146759103Y-98222067D01*
X146781818Y-98060442D01*
X146781953Y-98050785D01*
X146782076Y-98041968D01*
X146782076Y-98041961D01*
X146782103Y-98040000D01*
X146781347Y-98033262D01*
X146780956Y-98029778D01*
X147857968Y-98029778D01*
X147873895Y-98192213D01*
X147874997Y-98195525D01*
X147874997Y-98195526D01*
X147884913Y-98225333D01*
X147925413Y-98347082D01*
X147927223Y-98350071D01*
X147927225Y-98350075D01*
X147943730Y-98377327D01*
X148009962Y-98486689D01*
X148123340Y-98604095D01*
X148259911Y-98693465D01*
X148412888Y-98750356D01*
X148416343Y-98750817D01*
X148416347Y-98750818D01*
X148506518Y-98762849D01*
X148574668Y-98771942D01*
X148578141Y-98771626D01*
X148578144Y-98771626D01*
X148656741Y-98764473D01*
X148737210Y-98757150D01*
X148892435Y-98706714D01*
X148962532Y-98664928D01*
X149029627Y-98624932D01*
X149029630Y-98624930D01*
X149032629Y-98623142D01*
X149056771Y-98600152D01*
X150664971Y-98600152D01*
X150667395Y-98606151D01*
X150797220Y-98691106D01*
X150803408Y-98694232D01*
X150949739Y-98748651D01*
X150956469Y-98750330D01*
X151111219Y-98770978D01*
X151118155Y-98771124D01*
X151273632Y-98756973D01*
X151280430Y-98755578D01*
X151428903Y-98707336D01*
X151435229Y-98704466D01*
X151569324Y-98624530D01*
X151574856Y-98620331D01*
X151589248Y-98606625D01*
X151592117Y-98600152D01*
X153204971Y-98600152D01*
X153207395Y-98606151D01*
X153337220Y-98691106D01*
X153343408Y-98694232D01*
X153489739Y-98748651D01*
X153496469Y-98750330D01*
X153651219Y-98770978D01*
X153658155Y-98771124D01*
X153813632Y-98756973D01*
X153820430Y-98755578D01*
X153968903Y-98707336D01*
X153975229Y-98704466D01*
X154109324Y-98624530D01*
X154114856Y-98620331D01*
X154129248Y-98606625D01*
X154132117Y-98600152D01*
X155744971Y-98600152D01*
X155747395Y-98606151D01*
X155877220Y-98691106D01*
X155883408Y-98694232D01*
X156029739Y-98748651D01*
X156036469Y-98750330D01*
X156191219Y-98770978D01*
X156198155Y-98771124D01*
X156353632Y-98756973D01*
X156360430Y-98755578D01*
X156508903Y-98707336D01*
X156515229Y-98704466D01*
X156649324Y-98624530D01*
X156654856Y-98620331D01*
X156669248Y-98606625D01*
X156672921Y-98598337D01*
X156669178Y-98588980D01*
X156218791Y-98138593D01*
X156210000Y-98134952D01*
X156201209Y-98138593D01*
X155748734Y-98591068D01*
X155744971Y-98600152D01*
X154132117Y-98600152D01*
X154132921Y-98598337D01*
X154129178Y-98588980D01*
X153678791Y-98138593D01*
X153670000Y-98134952D01*
X153661209Y-98138593D01*
X153208734Y-98591068D01*
X153204971Y-98600152D01*
X151592117Y-98600152D01*
X151592921Y-98598337D01*
X151589178Y-98588980D01*
X151138791Y-98138593D01*
X151130000Y-98134952D01*
X151121209Y-98138593D01*
X150668734Y-98591068D01*
X150664971Y-98600152D01*
X149056771Y-98600152D01*
X149095552Y-98563221D01*
X149148294Y-98512996D01*
X149148297Y-98512993D01*
X149150823Y-98510587D01*
X149241144Y-98374643D01*
X149299103Y-98222067D01*
X149321818Y-98060442D01*
X149321953Y-98050785D01*
X149322076Y-98041968D01*
X149322076Y-98041961D01*
X149322103Y-98040000D01*
X149321347Y-98033262D01*
X150398812Y-98033262D01*
X150414046Y-98188634D01*
X150415489Y-98195421D01*
X150464766Y-98343553D01*
X150467682Y-98349863D01*
X150548551Y-98483394D01*
X150552787Y-98488895D01*
X150563074Y-98499547D01*
X150571504Y-98503213D01*
X150580701Y-98499497D01*
X151031407Y-98048791D01*
X151035048Y-98040000D01*
X151224952Y-98040000D01*
X151228593Y-98048791D01*
X151681457Y-98501655D01*
X151690653Y-98505464D01*
X151694704Y-98503843D01*
X151778761Y-98377327D01*
X151781938Y-98371146D01*
X151837377Y-98225202D01*
X151839100Y-98218489D01*
X151861042Y-98062369D01*
X151861342Y-98058464D01*
X151861573Y-98041962D01*
X151861381Y-98038045D01*
X151860844Y-98033262D01*
X152938812Y-98033262D01*
X152954046Y-98188634D01*
X152955489Y-98195421D01*
X153004766Y-98343553D01*
X153007682Y-98349863D01*
X153088551Y-98483394D01*
X153092787Y-98488895D01*
X153103074Y-98499547D01*
X153111504Y-98503213D01*
X153120701Y-98499497D01*
X153571407Y-98048791D01*
X153575048Y-98040000D01*
X153764952Y-98040000D01*
X153768593Y-98048791D01*
X154221457Y-98501655D01*
X154230653Y-98505464D01*
X154234704Y-98503843D01*
X154318761Y-98377327D01*
X154321938Y-98371146D01*
X154377377Y-98225202D01*
X154379100Y-98218489D01*
X154401042Y-98062369D01*
X154401342Y-98058464D01*
X154401573Y-98041962D01*
X154401381Y-98038045D01*
X154400844Y-98033262D01*
X155478812Y-98033262D01*
X155494046Y-98188634D01*
X155495489Y-98195421D01*
X155544766Y-98343553D01*
X155547682Y-98349863D01*
X155628551Y-98483394D01*
X155632787Y-98488895D01*
X155643074Y-98499547D01*
X155651504Y-98503213D01*
X155660701Y-98499497D01*
X156111407Y-98048791D01*
X156115048Y-98040000D01*
X156304952Y-98040000D01*
X156308593Y-98048791D01*
X156761457Y-98501655D01*
X156770653Y-98505464D01*
X156774704Y-98503843D01*
X156858761Y-98377327D01*
X156861938Y-98371146D01*
X156917377Y-98225202D01*
X156919100Y-98218489D01*
X156941042Y-98062369D01*
X156941342Y-98058464D01*
X156941573Y-98041962D01*
X156941381Y-98038045D01*
X156923809Y-97881392D01*
X156922270Y-97874614D01*
X156870930Y-97727185D01*
X156867929Y-97720922D01*
X156785200Y-97588528D01*
X156780891Y-97583092D01*
X156777602Y-97579780D01*
X156768885Y-97576133D01*
X156760012Y-97579790D01*
X156308593Y-98031209D01*
X156304952Y-98040000D01*
X156115048Y-98040000D01*
X156111407Y-98031209D01*
X155659295Y-97579097D01*
X155650328Y-97575383D01*
X155642893Y-97578418D01*
X155641157Y-97580546D01*
X155556589Y-97711769D01*
X155553503Y-97717986D01*
X155500108Y-97864686D01*
X155498475Y-97871439D01*
X155478909Y-98026317D01*
X155478812Y-98033262D01*
X154400844Y-98033262D01*
X154383809Y-97881392D01*
X154382270Y-97874614D01*
X154330930Y-97727185D01*
X154327929Y-97720922D01*
X154245200Y-97588528D01*
X154240891Y-97583092D01*
X154237602Y-97579780D01*
X154228885Y-97576133D01*
X154220012Y-97579790D01*
X153768593Y-98031209D01*
X153764952Y-98040000D01*
X153575048Y-98040000D01*
X153571407Y-98031209D01*
X153119295Y-97579097D01*
X153110328Y-97575383D01*
X153102893Y-97578418D01*
X153101157Y-97580546D01*
X153016589Y-97711769D01*
X153013503Y-97717986D01*
X152960108Y-97864686D01*
X152958475Y-97871439D01*
X152938909Y-98026317D01*
X152938812Y-98033262D01*
X151860844Y-98033262D01*
X151843809Y-97881392D01*
X151842270Y-97874614D01*
X151790930Y-97727185D01*
X151787929Y-97720922D01*
X151705200Y-97588528D01*
X151700891Y-97583092D01*
X151697602Y-97579780D01*
X151688885Y-97576133D01*
X151680012Y-97579790D01*
X151228593Y-98031209D01*
X151224952Y-98040000D01*
X151035048Y-98040000D01*
X151031407Y-98031209D01*
X150579295Y-97579097D01*
X150570328Y-97575383D01*
X150562893Y-97578418D01*
X150561157Y-97580546D01*
X150476589Y-97711769D01*
X150473503Y-97717986D01*
X150420108Y-97864686D01*
X150418475Y-97871439D01*
X150398909Y-98026317D01*
X150398812Y-98033262D01*
X149321347Y-98033262D01*
X149304300Y-97881277D01*
X149304299Y-97881273D01*
X149303910Y-97877804D01*
X149250234Y-97723669D01*
X149163744Y-97585256D01*
X149060534Y-97481322D01*
X150666473Y-97481322D01*
X150670160Y-97490357D01*
X151121210Y-97941407D01*
X151130000Y-97945048D01*
X151138791Y-97941407D01*
X151590564Y-97489634D01*
X151594006Y-97481322D01*
X153206473Y-97481322D01*
X153210160Y-97490357D01*
X153661210Y-97941407D01*
X153670000Y-97945048D01*
X153678791Y-97941407D01*
X154130564Y-97489634D01*
X154134006Y-97481322D01*
X155746473Y-97481322D01*
X155750160Y-97490357D01*
X156201210Y-97941407D01*
X156210000Y-97945048D01*
X156218791Y-97941407D01*
X156670564Y-97489634D01*
X156674229Y-97480784D01*
X156670667Y-97472140D01*
X156665472Y-97467963D01*
X156533659Y-97384312D01*
X156527423Y-97381271D01*
X156380349Y-97328901D01*
X156373592Y-97327316D01*
X156218574Y-97308831D01*
X156211638Y-97308783D01*
X156056370Y-97325102D01*
X156049598Y-97326591D01*
X155901806Y-97376904D01*
X155895524Y-97379860D01*
X155762557Y-97461661D01*
X155757088Y-97465933D01*
X155750130Y-97472747D01*
X155746473Y-97481322D01*
X154134006Y-97481322D01*
X154134229Y-97480784D01*
X154130667Y-97472140D01*
X154125472Y-97467963D01*
X153993659Y-97384312D01*
X153987423Y-97381271D01*
X153840349Y-97328901D01*
X153833592Y-97327316D01*
X153678574Y-97308831D01*
X153671638Y-97308783D01*
X153516370Y-97325102D01*
X153509598Y-97326591D01*
X153361806Y-97376904D01*
X153355524Y-97379860D01*
X153222557Y-97461661D01*
X153217088Y-97465933D01*
X153210130Y-97472747D01*
X153206473Y-97481322D01*
X151594006Y-97481322D01*
X151594229Y-97480784D01*
X151590667Y-97472140D01*
X151585472Y-97467963D01*
X151453659Y-97384312D01*
X151447423Y-97381271D01*
X151300349Y-97328901D01*
X151293592Y-97327316D01*
X151138574Y-97308831D01*
X151131638Y-97308783D01*
X150976370Y-97325102D01*
X150969598Y-97326591D01*
X150821806Y-97376904D01*
X150815524Y-97379860D01*
X150682557Y-97461661D01*
X150677088Y-97465933D01*
X150670130Y-97472747D01*
X150666473Y-97481322D01*
X149060534Y-97481322D01*
X149048739Y-97469444D01*
X149023287Y-97453292D01*
X148913879Y-97383859D01*
X148913875Y-97383857D01*
X148910933Y-97381990D01*
X148757176Y-97327240D01*
X148680720Y-97318123D01*
X148598578Y-97308328D01*
X148598574Y-97308328D01*
X148595111Y-97307915D01*
X148502278Y-97317672D01*
X148436262Y-97324610D01*
X148436259Y-97324611D01*
X148432792Y-97324975D01*
X148429491Y-97326099D01*
X148429490Y-97326099D01*
X148425915Y-97327316D01*
X148278286Y-97377573D01*
X148139272Y-97463095D01*
X148136780Y-97465536D01*
X148136778Y-97465537D01*
X148120659Y-97481322D01*
X148022661Y-97577289D01*
X148020771Y-97580222D01*
X148020770Y-97580223D01*
X148015616Y-97588220D01*
X147934247Y-97714481D01*
X147878424Y-97867852D01*
X147857968Y-98029778D01*
X146780956Y-98029778D01*
X146764300Y-97881277D01*
X146764299Y-97881273D01*
X146763910Y-97877804D01*
X146710234Y-97723669D01*
X146623744Y-97585256D01*
X146508739Y-97469444D01*
X146483287Y-97453292D01*
X146373879Y-97383859D01*
X146373875Y-97383857D01*
X146370933Y-97381990D01*
X146217176Y-97327240D01*
X146140720Y-97318123D01*
X146058578Y-97308328D01*
X146058574Y-97308328D01*
X146055111Y-97307915D01*
X145962278Y-97317672D01*
X145896262Y-97324610D01*
X145896259Y-97324611D01*
X145892792Y-97324975D01*
X145889491Y-97326099D01*
X145889490Y-97326099D01*
X145885915Y-97327316D01*
X145738286Y-97377573D01*
X145599272Y-97463095D01*
X145596780Y-97465536D01*
X145596778Y-97465537D01*
X145580659Y-97481322D01*
X145482661Y-97577289D01*
X145480771Y-97580222D01*
X145480770Y-97580223D01*
X145475616Y-97588220D01*
X145394247Y-97714481D01*
X145338424Y-97867852D01*
X145317968Y-98029778D01*
X144240956Y-98029778D01*
X144224300Y-97881277D01*
X144224299Y-97881273D01*
X144223910Y-97877804D01*
X144170234Y-97723669D01*
X144083744Y-97585256D01*
X143968739Y-97469444D01*
X143943287Y-97453292D01*
X143833879Y-97383859D01*
X143833875Y-97383857D01*
X143830933Y-97381990D01*
X143677176Y-97327240D01*
X143600720Y-97318123D01*
X143518578Y-97308328D01*
X143518574Y-97308328D01*
X143515111Y-97307915D01*
X143422278Y-97317672D01*
X143356262Y-97324610D01*
X143356259Y-97324611D01*
X143352792Y-97324975D01*
X143349491Y-97326099D01*
X143349490Y-97326099D01*
X143345915Y-97327316D01*
X143198286Y-97377573D01*
X143059272Y-97463095D01*
X143056780Y-97465536D01*
X143056778Y-97465537D01*
X143040659Y-97481322D01*
X142942661Y-97577289D01*
X142940771Y-97580222D01*
X142940770Y-97580223D01*
X142935616Y-97588220D01*
X142854247Y-97714481D01*
X142798424Y-97867852D01*
X142777968Y-98029778D01*
X141700956Y-98029778D01*
X141684300Y-97881277D01*
X141684299Y-97881273D01*
X141683910Y-97877804D01*
X141630234Y-97723669D01*
X141543744Y-97585256D01*
X141428739Y-97469444D01*
X141403287Y-97453292D01*
X141293879Y-97383859D01*
X141293875Y-97383857D01*
X141290933Y-97381990D01*
X141137176Y-97327240D01*
X141060720Y-97318123D01*
X140978578Y-97308328D01*
X140978574Y-97308328D01*
X140975111Y-97307915D01*
X140882278Y-97317672D01*
X140816262Y-97324610D01*
X140816259Y-97324611D01*
X140812792Y-97324975D01*
X140809491Y-97326099D01*
X140809490Y-97326099D01*
X140805915Y-97327316D01*
X140658286Y-97377573D01*
X140519272Y-97463095D01*
X140516780Y-97465536D01*
X140516778Y-97465537D01*
X140500659Y-97481322D01*
X140402661Y-97577289D01*
X140400771Y-97580222D01*
X140400770Y-97580223D01*
X140395616Y-97588220D01*
X140314247Y-97714481D01*
X140258424Y-97867852D01*
X140237968Y-98029778D01*
X139160956Y-98029778D01*
X139144300Y-97881277D01*
X139144299Y-97881273D01*
X139143910Y-97877804D01*
X139090234Y-97723669D01*
X139003744Y-97585256D01*
X138888739Y-97469444D01*
X138863287Y-97453292D01*
X138753879Y-97383859D01*
X138753875Y-97383857D01*
X138750933Y-97381990D01*
X138597176Y-97327240D01*
X138520720Y-97318123D01*
X138438578Y-97308328D01*
X138438574Y-97308328D01*
X138435111Y-97307915D01*
X138342278Y-97317672D01*
X138276262Y-97324610D01*
X138276259Y-97324611D01*
X138272792Y-97324975D01*
X138269491Y-97326099D01*
X138269490Y-97326099D01*
X138265915Y-97327316D01*
X138118286Y-97377573D01*
X137979272Y-97463095D01*
X137976780Y-97465536D01*
X137976778Y-97465537D01*
X137960659Y-97481322D01*
X137862661Y-97577289D01*
X137860771Y-97580222D01*
X137860770Y-97580223D01*
X137855616Y-97588220D01*
X137774247Y-97714481D01*
X137718424Y-97867852D01*
X137697968Y-98029778D01*
X136620956Y-98029778D01*
X136604300Y-97881277D01*
X136604299Y-97881273D01*
X136603910Y-97877804D01*
X136550234Y-97723669D01*
X136463744Y-97585256D01*
X136348739Y-97469444D01*
X136323287Y-97453292D01*
X136213879Y-97383859D01*
X136213875Y-97383857D01*
X136210933Y-97381990D01*
X136057176Y-97327240D01*
X135980720Y-97318123D01*
X135898578Y-97308328D01*
X135898574Y-97308328D01*
X135895111Y-97307915D01*
X135802278Y-97317672D01*
X135736262Y-97324610D01*
X135736259Y-97324611D01*
X135732792Y-97324975D01*
X135729491Y-97326099D01*
X135729490Y-97326099D01*
X135725915Y-97327316D01*
X135578286Y-97377573D01*
X135439272Y-97463095D01*
X135436780Y-97465536D01*
X135436778Y-97465537D01*
X135420659Y-97481322D01*
X135322661Y-97577289D01*
X135320771Y-97580222D01*
X135320770Y-97580223D01*
X135315616Y-97588220D01*
X135234247Y-97714481D01*
X135178424Y-97867852D01*
X135157968Y-98029778D01*
X134080454Y-98029778D01*
X134063809Y-97881392D01*
X134062270Y-97874614D01*
X134010930Y-97727185D01*
X134007929Y-97720922D01*
X133925200Y-97588528D01*
X133920891Y-97583092D01*
X133917602Y-97579780D01*
X133908885Y-97576133D01*
X133900012Y-97579790D01*
X133448593Y-98031209D01*
X133444952Y-98040000D01*
X133255048Y-98040000D01*
X133251407Y-98031209D01*
X132799295Y-97579097D01*
X132790328Y-97575383D01*
X132782893Y-97578418D01*
X132781157Y-97580546D01*
X132696589Y-97711769D01*
X132693503Y-97717986D01*
X132640108Y-97864686D01*
X132638475Y-97871439D01*
X132618909Y-98026317D01*
X132618812Y-98033262D01*
X126873000Y-98033262D01*
X126873000Y-97481322D01*
X132886473Y-97481322D01*
X132890160Y-97490357D01*
X133341210Y-97941407D01*
X133350000Y-97945048D01*
X133358791Y-97941407D01*
X133810564Y-97489634D01*
X133814229Y-97480784D01*
X133810667Y-97472140D01*
X133805472Y-97467963D01*
X133673659Y-97384312D01*
X133667423Y-97381271D01*
X133520349Y-97328901D01*
X133513592Y-97327316D01*
X133358574Y-97308831D01*
X133351638Y-97308783D01*
X133196370Y-97325102D01*
X133189598Y-97326591D01*
X133041806Y-97376904D01*
X133035524Y-97379860D01*
X132902557Y-97461661D01*
X132897088Y-97465933D01*
X132890130Y-97472747D01*
X132886473Y-97481322D01*
X126873000Y-97481322D01*
X126873000Y-94679317D01*
X127209031Y-94679317D01*
X127209695Y-94696206D01*
X127219745Y-94951998D01*
X127268773Y-95220449D01*
X127355137Y-95479315D01*
X127356124Y-95481291D01*
X127356126Y-95481295D01*
X127403096Y-95575296D01*
X127477114Y-95723428D01*
X127478366Y-95725239D01*
X127478368Y-95725243D01*
X127631009Y-95946098D01*
X127631014Y-95946105D01*
X127632269Y-95947920D01*
X127633773Y-95949547D01*
X127816005Y-96146686D01*
X127816012Y-96146692D01*
X127817508Y-96148311D01*
X128029135Y-96320601D01*
X128031012Y-96321731D01*
X128031019Y-96321736D01*
X128261037Y-96460218D01*
X128262926Y-96461355D01*
X128514217Y-96567763D01*
X128605840Y-96592056D01*
X128775869Y-96637139D01*
X128775875Y-96637140D01*
X128777994Y-96637702D01*
X128780174Y-96637960D01*
X128780179Y-96637961D01*
X129046797Y-96669517D01*
X129048994Y-96669777D01*
X129051204Y-96669725D01*
X129051205Y-96669725D01*
X129185402Y-96666562D01*
X129321810Y-96663348D01*
X129323989Y-96662985D01*
X129323992Y-96662985D01*
X129393207Y-96651464D01*
X129590998Y-96618543D01*
X129593104Y-96617877D01*
X129849087Y-96536921D01*
X129849094Y-96536918D01*
X129851188Y-96536256D01*
X130097188Y-96418128D01*
X130124091Y-96400152D01*
X131614971Y-96400152D01*
X131617395Y-96406151D01*
X131747220Y-96491106D01*
X131753408Y-96494232D01*
X131899739Y-96548651D01*
X131906469Y-96550330D01*
X132061219Y-96570978D01*
X132068155Y-96571124D01*
X132223632Y-96556973D01*
X132230430Y-96555578D01*
X132378903Y-96507336D01*
X132385229Y-96504466D01*
X132519324Y-96424530D01*
X132524856Y-96420331D01*
X132539248Y-96406625D01*
X132542117Y-96400152D01*
X134154971Y-96400152D01*
X134157395Y-96406151D01*
X134287220Y-96491106D01*
X134293408Y-96494232D01*
X134439739Y-96548651D01*
X134446469Y-96550330D01*
X134601219Y-96570978D01*
X134608155Y-96571124D01*
X134763632Y-96556973D01*
X134770430Y-96555578D01*
X134918903Y-96507336D01*
X134925229Y-96504466D01*
X135059324Y-96424530D01*
X135064856Y-96420331D01*
X135079248Y-96406625D01*
X135082921Y-96398337D01*
X135079178Y-96388980D01*
X134628791Y-95938593D01*
X134620000Y-95934952D01*
X134611209Y-95938593D01*
X134158734Y-96391068D01*
X134154971Y-96400152D01*
X132542117Y-96400152D01*
X132542921Y-96398337D01*
X132539178Y-96388980D01*
X132088791Y-95938593D01*
X132080000Y-95934952D01*
X132071209Y-95938593D01*
X131618734Y-96391068D01*
X131614971Y-96400152D01*
X130124091Y-96400152D01*
X130324089Y-96266518D01*
X130527364Y-96084449D01*
X130702958Y-95875555D01*
X130712384Y-95860442D01*
X130729335Y-95833262D01*
X131348812Y-95833262D01*
X131364046Y-95988634D01*
X131365489Y-95995421D01*
X131414766Y-96143553D01*
X131417682Y-96149863D01*
X131498551Y-96283394D01*
X131502787Y-96288895D01*
X131513074Y-96299547D01*
X131521504Y-96303213D01*
X131530701Y-96299497D01*
X131981407Y-95848791D01*
X131985048Y-95840000D01*
X132174952Y-95840000D01*
X132178593Y-95848791D01*
X132631457Y-96301655D01*
X132640653Y-96305464D01*
X132644704Y-96303843D01*
X132728761Y-96177327D01*
X132731938Y-96171146D01*
X132787377Y-96025202D01*
X132789100Y-96018489D01*
X132811042Y-95862369D01*
X132811342Y-95858464D01*
X132811573Y-95841962D01*
X132811381Y-95838045D01*
X132810844Y-95833262D01*
X133888812Y-95833262D01*
X133904046Y-95988634D01*
X133905489Y-95995421D01*
X133954766Y-96143553D01*
X133957682Y-96149863D01*
X134038551Y-96283394D01*
X134042787Y-96288895D01*
X134053074Y-96299547D01*
X134061504Y-96303213D01*
X134070701Y-96299497D01*
X134521407Y-95848791D01*
X134525048Y-95840000D01*
X134714952Y-95840000D01*
X134718593Y-95848791D01*
X135171457Y-96301655D01*
X135180653Y-96305464D01*
X135184704Y-96303843D01*
X135268761Y-96177327D01*
X135271938Y-96171146D01*
X135327377Y-96025202D01*
X135329100Y-96018489D01*
X135351042Y-95862369D01*
X135351342Y-95858464D01*
X135351573Y-95841962D01*
X135351381Y-95838045D01*
X135350454Y-95829778D01*
X136427968Y-95829778D01*
X136428309Y-95833255D01*
X136441280Y-95965541D01*
X136443895Y-95992213D01*
X136444997Y-95995525D01*
X136444997Y-95995526D01*
X136477584Y-96093485D01*
X136495413Y-96147082D01*
X136497223Y-96150071D01*
X136497225Y-96150075D01*
X136512660Y-96175561D01*
X136579962Y-96286689D01*
X136693340Y-96404095D01*
X136696259Y-96406005D01*
X136696260Y-96406006D01*
X136718151Y-96420331D01*
X136829911Y-96493465D01*
X136982888Y-96550356D01*
X136986343Y-96550817D01*
X136986347Y-96550818D01*
X137076518Y-96562849D01*
X137144668Y-96571942D01*
X137148141Y-96571626D01*
X137148144Y-96571626D01*
X137225939Y-96564546D01*
X137307210Y-96557150D01*
X137462435Y-96506714D01*
X137540433Y-96460218D01*
X137599627Y-96424932D01*
X137599630Y-96424930D01*
X137602629Y-96423142D01*
X137708993Y-96321853D01*
X137718294Y-96312996D01*
X137718297Y-96312993D01*
X137720823Y-96310587D01*
X137811144Y-96174643D01*
X137869103Y-96022067D01*
X137891818Y-95860442D01*
X137891953Y-95850785D01*
X137892076Y-95841968D01*
X137892076Y-95841961D01*
X137892103Y-95840000D01*
X137891347Y-95833262D01*
X137890956Y-95829778D01*
X138967968Y-95829778D01*
X138968309Y-95833255D01*
X138981280Y-95965541D01*
X138983895Y-95992213D01*
X138984997Y-95995525D01*
X138984997Y-95995526D01*
X139017584Y-96093485D01*
X139035413Y-96147082D01*
X139037223Y-96150071D01*
X139037225Y-96150075D01*
X139052660Y-96175561D01*
X139119962Y-96286689D01*
X139233340Y-96404095D01*
X139236259Y-96406005D01*
X139236260Y-96406006D01*
X139258151Y-96420331D01*
X139369911Y-96493465D01*
X139522888Y-96550356D01*
X139526343Y-96550817D01*
X139526347Y-96550818D01*
X139616518Y-96562849D01*
X139684668Y-96571942D01*
X139688141Y-96571626D01*
X139688144Y-96571626D01*
X139765939Y-96564546D01*
X139847210Y-96557150D01*
X140002435Y-96506714D01*
X140080433Y-96460218D01*
X140139627Y-96424932D01*
X140139630Y-96424930D01*
X140142629Y-96423142D01*
X140248993Y-96321853D01*
X140258294Y-96312996D01*
X140258297Y-96312993D01*
X140260823Y-96310587D01*
X140351144Y-96174643D01*
X140409103Y-96022067D01*
X140431818Y-95860442D01*
X140431953Y-95850785D01*
X140432076Y-95841968D01*
X140432076Y-95841961D01*
X140432103Y-95840000D01*
X140431347Y-95833262D01*
X140430956Y-95829778D01*
X141507968Y-95829778D01*
X141508309Y-95833255D01*
X141521280Y-95965541D01*
X141523895Y-95992213D01*
X141524997Y-95995525D01*
X141524997Y-95995526D01*
X141557584Y-96093485D01*
X141575413Y-96147082D01*
X141577223Y-96150071D01*
X141577225Y-96150075D01*
X141592660Y-96175561D01*
X141659962Y-96286689D01*
X141773340Y-96404095D01*
X141776259Y-96406005D01*
X141776260Y-96406006D01*
X141798151Y-96420331D01*
X141909911Y-96493465D01*
X142062888Y-96550356D01*
X142066343Y-96550817D01*
X142066347Y-96550818D01*
X142156518Y-96562849D01*
X142224668Y-96571942D01*
X142228141Y-96571626D01*
X142228144Y-96571626D01*
X142305939Y-96564546D01*
X142387210Y-96557150D01*
X142542435Y-96506714D01*
X142620433Y-96460218D01*
X142679627Y-96424932D01*
X142679630Y-96424930D01*
X142682629Y-96423142D01*
X142788993Y-96321853D01*
X142798294Y-96312996D01*
X142798297Y-96312993D01*
X142800823Y-96310587D01*
X142891144Y-96174643D01*
X142949103Y-96022067D01*
X142971818Y-95860442D01*
X142971953Y-95850785D01*
X142972076Y-95841968D01*
X142972076Y-95841961D01*
X142972103Y-95840000D01*
X142971347Y-95833262D01*
X142970956Y-95829778D01*
X144047968Y-95829778D01*
X144048309Y-95833255D01*
X144061280Y-95965541D01*
X144063895Y-95992213D01*
X144064997Y-95995525D01*
X144064997Y-95995526D01*
X144097584Y-96093485D01*
X144115413Y-96147082D01*
X144117223Y-96150071D01*
X144117225Y-96150075D01*
X144132660Y-96175561D01*
X144199962Y-96286689D01*
X144313340Y-96404095D01*
X144316259Y-96406005D01*
X144316260Y-96406006D01*
X144338151Y-96420331D01*
X144449911Y-96493465D01*
X144602888Y-96550356D01*
X144606343Y-96550817D01*
X144606347Y-96550818D01*
X144696518Y-96562849D01*
X144764668Y-96571942D01*
X144768141Y-96571626D01*
X144768144Y-96571626D01*
X144845939Y-96564546D01*
X144927210Y-96557150D01*
X145082435Y-96506714D01*
X145160433Y-96460218D01*
X145219627Y-96424932D01*
X145219630Y-96424930D01*
X145222629Y-96423142D01*
X145328993Y-96321853D01*
X145338294Y-96312996D01*
X145338297Y-96312993D01*
X145340823Y-96310587D01*
X145431144Y-96174643D01*
X145489103Y-96022067D01*
X145511818Y-95860442D01*
X145511953Y-95850785D01*
X145512076Y-95841968D01*
X145512076Y-95841961D01*
X145512103Y-95840000D01*
X145511347Y-95833262D01*
X145510956Y-95829778D01*
X146587968Y-95829778D01*
X146588309Y-95833255D01*
X146601280Y-95965541D01*
X146603895Y-95992213D01*
X146604997Y-95995525D01*
X146604997Y-95995526D01*
X146637584Y-96093485D01*
X146655413Y-96147082D01*
X146657223Y-96150071D01*
X146657225Y-96150075D01*
X146672660Y-96175561D01*
X146739962Y-96286689D01*
X146853340Y-96404095D01*
X146856259Y-96406005D01*
X146856260Y-96406006D01*
X146878151Y-96420331D01*
X146989911Y-96493465D01*
X147142888Y-96550356D01*
X147146343Y-96550817D01*
X147146347Y-96550818D01*
X147236518Y-96562849D01*
X147304668Y-96571942D01*
X147308141Y-96571626D01*
X147308144Y-96571626D01*
X147385939Y-96564546D01*
X147467210Y-96557150D01*
X147622435Y-96506714D01*
X147700433Y-96460218D01*
X147759627Y-96424932D01*
X147759630Y-96424930D01*
X147762629Y-96423142D01*
X147868993Y-96321853D01*
X147878294Y-96312996D01*
X147878297Y-96312993D01*
X147880823Y-96310587D01*
X147971144Y-96174643D01*
X148029103Y-96022067D01*
X148051818Y-95860442D01*
X148051953Y-95850785D01*
X148052076Y-95841968D01*
X148052076Y-95841961D01*
X148052103Y-95840000D01*
X148051347Y-95833262D01*
X148050956Y-95829778D01*
X149127968Y-95829778D01*
X149128309Y-95833255D01*
X149141280Y-95965541D01*
X149143895Y-95992213D01*
X149144997Y-95995525D01*
X149144997Y-95995526D01*
X149177584Y-96093485D01*
X149195413Y-96147082D01*
X149197223Y-96150071D01*
X149197225Y-96150075D01*
X149212660Y-96175561D01*
X149279962Y-96286689D01*
X149393340Y-96404095D01*
X149396259Y-96406005D01*
X149396260Y-96406006D01*
X149418151Y-96420331D01*
X149529911Y-96493465D01*
X149682888Y-96550356D01*
X149686343Y-96550817D01*
X149686347Y-96550818D01*
X149776518Y-96562849D01*
X149844668Y-96571942D01*
X149848141Y-96571626D01*
X149848144Y-96571626D01*
X149925939Y-96564546D01*
X150007210Y-96557150D01*
X150162435Y-96506714D01*
X150240433Y-96460218D01*
X150299627Y-96424932D01*
X150299630Y-96424930D01*
X150302629Y-96423142D01*
X150326771Y-96400152D01*
X151934971Y-96400152D01*
X151937395Y-96406151D01*
X152067220Y-96491106D01*
X152073408Y-96494232D01*
X152219739Y-96548651D01*
X152226469Y-96550330D01*
X152381219Y-96570978D01*
X152388155Y-96571124D01*
X152543632Y-96556973D01*
X152550430Y-96555578D01*
X152698903Y-96507336D01*
X152705229Y-96504466D01*
X152839324Y-96424530D01*
X152844856Y-96420331D01*
X152859248Y-96406625D01*
X152862921Y-96398337D01*
X152859178Y-96388980D01*
X152408791Y-95938593D01*
X152400000Y-95934952D01*
X152391209Y-95938593D01*
X151938734Y-96391068D01*
X151934971Y-96400152D01*
X150326771Y-96400152D01*
X150408993Y-96321853D01*
X150418294Y-96312996D01*
X150418297Y-96312993D01*
X150420823Y-96310587D01*
X150511144Y-96174643D01*
X150569103Y-96022067D01*
X150591818Y-95860442D01*
X150591953Y-95850785D01*
X150592076Y-95841968D01*
X150592076Y-95841961D01*
X150592103Y-95840000D01*
X150591347Y-95833262D01*
X151668812Y-95833262D01*
X151684046Y-95988634D01*
X151685489Y-95995421D01*
X151734766Y-96143553D01*
X151737682Y-96149863D01*
X151818551Y-96283394D01*
X151822787Y-96288895D01*
X151833074Y-96299547D01*
X151841504Y-96303213D01*
X151850701Y-96299497D01*
X152301407Y-95848791D01*
X152305048Y-95840000D01*
X152494952Y-95840000D01*
X152498593Y-95848791D01*
X152951457Y-96301655D01*
X152960653Y-96305464D01*
X152964704Y-96303843D01*
X153048761Y-96177327D01*
X153051938Y-96171146D01*
X153107377Y-96025202D01*
X153109100Y-96018489D01*
X153131042Y-95862369D01*
X153131342Y-95858464D01*
X153131573Y-95841962D01*
X153131381Y-95838045D01*
X153130454Y-95829778D01*
X154207968Y-95829778D01*
X154208309Y-95833255D01*
X154221280Y-95965541D01*
X154223895Y-95992213D01*
X154224997Y-95995525D01*
X154224997Y-95995526D01*
X154257584Y-96093485D01*
X154275413Y-96147082D01*
X154277223Y-96150071D01*
X154277225Y-96150075D01*
X154292660Y-96175561D01*
X154359962Y-96286689D01*
X154473340Y-96404095D01*
X154476259Y-96406005D01*
X154476260Y-96406006D01*
X154498151Y-96420331D01*
X154609911Y-96493465D01*
X154762888Y-96550356D01*
X154766343Y-96550817D01*
X154766347Y-96550818D01*
X154856518Y-96562849D01*
X154924668Y-96571942D01*
X154928141Y-96571626D01*
X154928144Y-96571626D01*
X155005939Y-96564546D01*
X155087210Y-96557150D01*
X155242435Y-96506714D01*
X155320433Y-96460218D01*
X155379627Y-96424932D01*
X155379630Y-96424930D01*
X155382629Y-96423142D01*
X155488993Y-96321853D01*
X155498294Y-96312996D01*
X155498297Y-96312993D01*
X155500823Y-96310587D01*
X155591144Y-96174643D01*
X155649103Y-96022067D01*
X155671818Y-95860442D01*
X155671953Y-95850785D01*
X155672076Y-95841968D01*
X155672076Y-95841961D01*
X155672103Y-95840000D01*
X155671347Y-95833262D01*
X156748812Y-95833262D01*
X156764046Y-95988634D01*
X156765489Y-95995421D01*
X156814766Y-96143553D01*
X156817682Y-96149863D01*
X156898551Y-96283394D01*
X156902787Y-96288895D01*
X156913074Y-96299547D01*
X156921504Y-96303213D01*
X156930701Y-96299497D01*
X157381407Y-95848791D01*
X157385048Y-95840000D01*
X157381407Y-95831209D01*
X156929295Y-95379097D01*
X156920328Y-95375383D01*
X156912893Y-95378418D01*
X156911157Y-95380546D01*
X156826589Y-95511769D01*
X156823503Y-95517986D01*
X156770108Y-95664686D01*
X156768475Y-95671439D01*
X156748909Y-95826317D01*
X156748812Y-95833262D01*
X155671347Y-95833262D01*
X155654300Y-95681277D01*
X155654299Y-95681273D01*
X155653910Y-95677804D01*
X155600234Y-95523669D01*
X155513744Y-95385256D01*
X155398739Y-95269444D01*
X155368275Y-95250111D01*
X155263879Y-95183859D01*
X155263875Y-95183857D01*
X155260933Y-95181990D01*
X155107176Y-95127240D01*
X155030720Y-95118123D01*
X154948578Y-95108328D01*
X154948574Y-95108328D01*
X154945111Y-95107915D01*
X154852278Y-95117672D01*
X154786262Y-95124610D01*
X154786259Y-95124611D01*
X154782792Y-95124975D01*
X154779491Y-95126099D01*
X154779490Y-95126099D01*
X154775915Y-95127316D01*
X154628286Y-95177573D01*
X154489272Y-95263095D01*
X154486780Y-95265536D01*
X154486778Y-95265537D01*
X154470659Y-95281322D01*
X154372661Y-95377289D01*
X154370771Y-95380222D01*
X154370770Y-95380223D01*
X154365616Y-95388220D01*
X154284247Y-95514481D01*
X154228424Y-95667852D01*
X154207968Y-95829778D01*
X153130454Y-95829778D01*
X153113809Y-95681392D01*
X153112270Y-95674614D01*
X153060930Y-95527185D01*
X153057929Y-95520922D01*
X152975200Y-95388528D01*
X152970891Y-95383092D01*
X152967602Y-95379780D01*
X152958885Y-95376133D01*
X152950012Y-95379790D01*
X152498593Y-95831209D01*
X152494952Y-95840000D01*
X152305048Y-95840000D01*
X152301407Y-95831209D01*
X151849295Y-95379097D01*
X151840328Y-95375383D01*
X151832893Y-95378418D01*
X151831157Y-95380546D01*
X151746589Y-95511769D01*
X151743503Y-95517986D01*
X151690108Y-95664686D01*
X151688475Y-95671439D01*
X151668909Y-95826317D01*
X151668812Y-95833262D01*
X150591347Y-95833262D01*
X150574300Y-95681277D01*
X150574299Y-95681273D01*
X150573910Y-95677804D01*
X150520234Y-95523669D01*
X150433744Y-95385256D01*
X150330534Y-95281322D01*
X151936473Y-95281322D01*
X151940160Y-95290357D01*
X152391210Y-95741407D01*
X152400000Y-95745048D01*
X152408791Y-95741407D01*
X152860564Y-95289634D01*
X152864229Y-95280784D01*
X152860667Y-95272140D01*
X152855472Y-95267963D01*
X152723659Y-95184312D01*
X152717423Y-95181271D01*
X152570349Y-95128901D01*
X152563592Y-95127316D01*
X152408574Y-95108831D01*
X152401638Y-95108783D01*
X152246370Y-95125102D01*
X152239598Y-95126591D01*
X152091806Y-95176904D01*
X152085524Y-95179860D01*
X151952557Y-95261661D01*
X151947088Y-95265933D01*
X151940130Y-95272747D01*
X151936473Y-95281322D01*
X150330534Y-95281322D01*
X150318739Y-95269444D01*
X150288275Y-95250111D01*
X150183879Y-95183859D01*
X150183875Y-95183857D01*
X150180933Y-95181990D01*
X150027176Y-95127240D01*
X149950720Y-95118123D01*
X149868578Y-95108328D01*
X149868574Y-95108328D01*
X149865111Y-95107915D01*
X149772278Y-95117672D01*
X149706262Y-95124610D01*
X149706259Y-95124611D01*
X149702792Y-95124975D01*
X149699491Y-95126099D01*
X149699490Y-95126099D01*
X149695915Y-95127316D01*
X149548286Y-95177573D01*
X149409272Y-95263095D01*
X149406780Y-95265536D01*
X149406778Y-95265537D01*
X149390659Y-95281322D01*
X149292661Y-95377289D01*
X149290771Y-95380222D01*
X149290770Y-95380223D01*
X149285616Y-95388220D01*
X149204247Y-95514481D01*
X149148424Y-95667852D01*
X149127968Y-95829778D01*
X148050956Y-95829778D01*
X148034300Y-95681277D01*
X148034299Y-95681273D01*
X148033910Y-95677804D01*
X147980234Y-95523669D01*
X147893744Y-95385256D01*
X147778739Y-95269444D01*
X147748275Y-95250111D01*
X147643879Y-95183859D01*
X147643875Y-95183857D01*
X147640933Y-95181990D01*
X147487176Y-95127240D01*
X147410720Y-95118123D01*
X147328578Y-95108328D01*
X147328574Y-95108328D01*
X147325111Y-95107915D01*
X147232278Y-95117672D01*
X147166262Y-95124610D01*
X147166259Y-95124611D01*
X147162792Y-95124975D01*
X147159491Y-95126099D01*
X147159490Y-95126099D01*
X147155915Y-95127316D01*
X147008286Y-95177573D01*
X146869272Y-95263095D01*
X146866780Y-95265536D01*
X146866778Y-95265537D01*
X146850659Y-95281322D01*
X146752661Y-95377289D01*
X146750771Y-95380222D01*
X146750770Y-95380223D01*
X146745616Y-95388220D01*
X146664247Y-95514481D01*
X146608424Y-95667852D01*
X146587968Y-95829778D01*
X145510956Y-95829778D01*
X145494300Y-95681277D01*
X145494299Y-95681273D01*
X145493910Y-95677804D01*
X145440234Y-95523669D01*
X145353744Y-95385256D01*
X145238739Y-95269444D01*
X145208275Y-95250111D01*
X145103879Y-95183859D01*
X145103875Y-95183857D01*
X145100933Y-95181990D01*
X144947176Y-95127240D01*
X144870720Y-95118123D01*
X144788578Y-95108328D01*
X144788574Y-95108328D01*
X144785111Y-95107915D01*
X144692278Y-95117672D01*
X144626262Y-95124610D01*
X144626259Y-95124611D01*
X144622792Y-95124975D01*
X144619491Y-95126099D01*
X144619490Y-95126099D01*
X144615915Y-95127316D01*
X144468286Y-95177573D01*
X144329272Y-95263095D01*
X144326780Y-95265536D01*
X144326778Y-95265537D01*
X144310659Y-95281322D01*
X144212661Y-95377289D01*
X144210771Y-95380222D01*
X144210770Y-95380223D01*
X144205616Y-95388220D01*
X144124247Y-95514481D01*
X144068424Y-95667852D01*
X144047968Y-95829778D01*
X142970956Y-95829778D01*
X142954300Y-95681277D01*
X142954299Y-95681273D01*
X142953910Y-95677804D01*
X142900234Y-95523669D01*
X142813744Y-95385256D01*
X142698739Y-95269444D01*
X142668275Y-95250111D01*
X142563879Y-95183859D01*
X142563875Y-95183857D01*
X142560933Y-95181990D01*
X142407176Y-95127240D01*
X142330720Y-95118123D01*
X142248578Y-95108328D01*
X142248574Y-95108328D01*
X142245111Y-95107915D01*
X142152278Y-95117672D01*
X142086262Y-95124610D01*
X142086259Y-95124611D01*
X142082792Y-95124975D01*
X142079491Y-95126099D01*
X142079490Y-95126099D01*
X142075915Y-95127316D01*
X141928286Y-95177573D01*
X141789272Y-95263095D01*
X141786780Y-95265536D01*
X141786778Y-95265537D01*
X141770659Y-95281322D01*
X141672661Y-95377289D01*
X141670771Y-95380222D01*
X141670770Y-95380223D01*
X141665616Y-95388220D01*
X141584247Y-95514481D01*
X141528424Y-95667852D01*
X141507968Y-95829778D01*
X140430956Y-95829778D01*
X140414300Y-95681277D01*
X140414299Y-95681273D01*
X140413910Y-95677804D01*
X140360234Y-95523669D01*
X140273744Y-95385256D01*
X140158739Y-95269444D01*
X140128275Y-95250111D01*
X140023879Y-95183859D01*
X140023875Y-95183857D01*
X140020933Y-95181990D01*
X139867176Y-95127240D01*
X139790720Y-95118123D01*
X139708578Y-95108328D01*
X139708574Y-95108328D01*
X139705111Y-95107915D01*
X139612278Y-95117672D01*
X139546262Y-95124610D01*
X139546259Y-95124611D01*
X139542792Y-95124975D01*
X139539491Y-95126099D01*
X139539490Y-95126099D01*
X139535915Y-95127316D01*
X139388286Y-95177573D01*
X139249272Y-95263095D01*
X139246780Y-95265536D01*
X139246778Y-95265537D01*
X139230659Y-95281322D01*
X139132661Y-95377289D01*
X139130771Y-95380222D01*
X139130770Y-95380223D01*
X139125616Y-95388220D01*
X139044247Y-95514481D01*
X138988424Y-95667852D01*
X138967968Y-95829778D01*
X137890956Y-95829778D01*
X137874300Y-95681277D01*
X137874299Y-95681273D01*
X137873910Y-95677804D01*
X137820234Y-95523669D01*
X137733744Y-95385256D01*
X137618739Y-95269444D01*
X137588275Y-95250111D01*
X137483879Y-95183859D01*
X137483875Y-95183857D01*
X137480933Y-95181990D01*
X137327176Y-95127240D01*
X137250720Y-95118123D01*
X137168578Y-95108328D01*
X137168574Y-95108328D01*
X137165111Y-95107915D01*
X137072278Y-95117672D01*
X137006262Y-95124610D01*
X137006259Y-95124611D01*
X137002792Y-95124975D01*
X136999491Y-95126099D01*
X136999490Y-95126099D01*
X136995915Y-95127316D01*
X136848286Y-95177573D01*
X136709272Y-95263095D01*
X136706780Y-95265536D01*
X136706778Y-95265537D01*
X136690659Y-95281322D01*
X136592661Y-95377289D01*
X136590771Y-95380222D01*
X136590770Y-95380223D01*
X136585616Y-95388220D01*
X136504247Y-95514481D01*
X136448424Y-95667852D01*
X136427968Y-95829778D01*
X135350454Y-95829778D01*
X135333809Y-95681392D01*
X135332270Y-95674614D01*
X135280930Y-95527185D01*
X135277929Y-95520922D01*
X135195200Y-95388528D01*
X135190891Y-95383092D01*
X135187602Y-95379780D01*
X135178885Y-95376133D01*
X135170012Y-95379790D01*
X134718593Y-95831209D01*
X134714952Y-95840000D01*
X134525048Y-95840000D01*
X134521407Y-95831209D01*
X134069295Y-95379097D01*
X134060328Y-95375383D01*
X134052893Y-95378418D01*
X134051157Y-95380546D01*
X133966589Y-95511769D01*
X133963503Y-95517986D01*
X133910108Y-95664686D01*
X133908475Y-95671439D01*
X133888909Y-95826317D01*
X133888812Y-95833262D01*
X132810844Y-95833262D01*
X132793809Y-95681392D01*
X132792270Y-95674614D01*
X132740930Y-95527185D01*
X132737929Y-95520922D01*
X132655200Y-95388528D01*
X132650891Y-95383092D01*
X132647602Y-95379780D01*
X132638885Y-95376133D01*
X132630012Y-95379790D01*
X132178593Y-95831209D01*
X132174952Y-95840000D01*
X131985048Y-95840000D01*
X131981407Y-95831209D01*
X131529295Y-95379097D01*
X131520328Y-95375383D01*
X131512893Y-95378418D01*
X131511157Y-95380546D01*
X131426589Y-95511769D01*
X131423503Y-95517986D01*
X131370108Y-95664686D01*
X131368475Y-95671439D01*
X131348909Y-95826317D01*
X131348812Y-95833262D01*
X130729335Y-95833262D01*
X130846196Y-95645880D01*
X130847366Y-95644004D01*
X130957708Y-95394415D01*
X130960291Y-95385256D01*
X130989604Y-95281322D01*
X131616473Y-95281322D01*
X131620160Y-95290357D01*
X132071210Y-95741407D01*
X132080000Y-95745048D01*
X132088791Y-95741407D01*
X132540564Y-95289634D01*
X132544006Y-95281322D01*
X134156473Y-95281322D01*
X134160160Y-95290357D01*
X134611210Y-95741407D01*
X134620000Y-95745048D01*
X134628791Y-95741407D01*
X135080564Y-95289634D01*
X135084229Y-95280784D01*
X135080667Y-95272140D01*
X135075472Y-95267963D01*
X134943659Y-95184312D01*
X134937423Y-95181271D01*
X134790349Y-95128901D01*
X134783592Y-95127316D01*
X134628574Y-95108831D01*
X134621638Y-95108783D01*
X134466370Y-95125102D01*
X134459598Y-95126591D01*
X134311806Y-95176904D01*
X134305524Y-95179860D01*
X134172557Y-95261661D01*
X134167088Y-95265933D01*
X134160130Y-95272747D01*
X134156473Y-95281322D01*
X132544006Y-95281322D01*
X132544229Y-95280784D01*
X132540667Y-95272140D01*
X132535472Y-95267963D01*
X132403659Y-95184312D01*
X132397423Y-95181271D01*
X132250349Y-95128901D01*
X132243592Y-95127316D01*
X132088574Y-95108831D01*
X132081638Y-95108783D01*
X131926370Y-95125102D01*
X131919598Y-95126591D01*
X131771806Y-95176904D01*
X131765524Y-95179860D01*
X131632557Y-95261661D01*
X131627088Y-95265933D01*
X131620130Y-95272747D01*
X131616473Y-95281322D01*
X130989604Y-95281322D01*
X131031183Y-95133894D01*
X131031184Y-95133890D01*
X131031782Y-95131769D01*
X131068110Y-94861306D01*
X131071922Y-94740000D01*
X131058108Y-94544899D01*
X131052804Y-94469989D01*
X131052803Y-94469985D01*
X131052648Y-94467790D01*
X131052184Y-94465634D01*
X130995679Y-94203178D01*
X130995677Y-94203172D01*
X130995212Y-94201011D01*
X130994895Y-94200152D01*
X132884971Y-94200152D01*
X132887395Y-94206151D01*
X133017220Y-94291106D01*
X133023408Y-94294232D01*
X133169739Y-94348651D01*
X133176469Y-94350330D01*
X133331219Y-94370978D01*
X133338155Y-94371124D01*
X133493632Y-94356973D01*
X133500430Y-94355578D01*
X133648903Y-94307336D01*
X133655229Y-94304466D01*
X133789324Y-94224530D01*
X133794856Y-94220331D01*
X133809248Y-94206625D01*
X133812921Y-94198337D01*
X133809178Y-94188980D01*
X133358791Y-93738593D01*
X133350000Y-93734952D01*
X133341209Y-93738593D01*
X132888734Y-94191068D01*
X132884971Y-94200152D01*
X130994895Y-94200152D01*
X130953963Y-94089201D01*
X130901523Y-93947054D01*
X130901523Y-93947053D01*
X130900760Y-93944986D01*
X130771176Y-93704824D01*
X130718319Y-93633262D01*
X132618812Y-93633262D01*
X132634046Y-93788634D01*
X132635489Y-93795421D01*
X132684766Y-93943553D01*
X132687682Y-93949863D01*
X132768551Y-94083394D01*
X132772787Y-94088895D01*
X132783074Y-94099547D01*
X132791504Y-94103213D01*
X132800701Y-94099497D01*
X133251407Y-93648791D01*
X133255048Y-93640000D01*
X133444952Y-93640000D01*
X133448593Y-93648791D01*
X133901457Y-94101655D01*
X133910653Y-94105464D01*
X133914704Y-94103843D01*
X133998761Y-93977327D01*
X134001938Y-93971146D01*
X134057377Y-93825202D01*
X134059100Y-93818489D01*
X134081042Y-93662369D01*
X134081342Y-93658464D01*
X134081573Y-93641962D01*
X134081381Y-93638045D01*
X134080454Y-93629778D01*
X135157968Y-93629778D01*
X135158309Y-93633255D01*
X135165152Y-93703041D01*
X135173895Y-93792213D01*
X135174997Y-93795525D01*
X135174997Y-93795526D01*
X135207126Y-93892108D01*
X135225413Y-93947082D01*
X135227223Y-93950071D01*
X135227225Y-93950075D01*
X135243730Y-93977327D01*
X135309962Y-94086689D01*
X135423340Y-94204095D01*
X135559911Y-94293465D01*
X135712888Y-94350356D01*
X135716343Y-94350817D01*
X135716347Y-94350818D01*
X135806518Y-94362849D01*
X135874668Y-94371942D01*
X135878141Y-94371626D01*
X135878144Y-94371626D01*
X135955939Y-94364546D01*
X136037210Y-94357150D01*
X136192435Y-94306714D01*
X136310907Y-94236091D01*
X136329627Y-94224932D01*
X136329630Y-94224930D01*
X136332629Y-94223142D01*
X136416783Y-94143003D01*
X136448294Y-94112996D01*
X136448297Y-94112993D01*
X136450823Y-94110587D01*
X136541144Y-93974643D01*
X136599103Y-93822067D01*
X136621818Y-93660442D01*
X136621953Y-93650785D01*
X136622076Y-93641968D01*
X136622076Y-93641961D01*
X136622103Y-93640000D01*
X136621347Y-93633262D01*
X136620956Y-93629778D01*
X137697968Y-93629778D01*
X137698309Y-93633255D01*
X137705152Y-93703041D01*
X137713895Y-93792213D01*
X137714997Y-93795525D01*
X137714997Y-93795526D01*
X137747126Y-93892108D01*
X137765413Y-93947082D01*
X137767223Y-93950071D01*
X137767225Y-93950075D01*
X137783730Y-93977327D01*
X137849962Y-94086689D01*
X137963340Y-94204095D01*
X138099911Y-94293465D01*
X138252888Y-94350356D01*
X138256343Y-94350817D01*
X138256347Y-94350818D01*
X138346518Y-94362849D01*
X138414668Y-94371942D01*
X138418141Y-94371626D01*
X138418144Y-94371626D01*
X138495939Y-94364546D01*
X138577210Y-94357150D01*
X138732435Y-94306714D01*
X138850907Y-94236091D01*
X138869627Y-94224932D01*
X138869630Y-94224930D01*
X138872629Y-94223142D01*
X138956783Y-94143003D01*
X138988294Y-94112996D01*
X138988297Y-94112993D01*
X138990823Y-94110587D01*
X139081144Y-93974643D01*
X139139103Y-93822067D01*
X139161818Y-93660442D01*
X139161953Y-93650785D01*
X139162076Y-93641968D01*
X139162076Y-93641961D01*
X139162103Y-93640000D01*
X139161347Y-93633262D01*
X139160956Y-93629778D01*
X140237968Y-93629778D01*
X140238309Y-93633255D01*
X140245152Y-93703041D01*
X140253895Y-93792213D01*
X140254997Y-93795525D01*
X140254997Y-93795526D01*
X140287126Y-93892108D01*
X140305413Y-93947082D01*
X140307223Y-93950071D01*
X140307225Y-93950075D01*
X140323730Y-93977327D01*
X140389962Y-94086689D01*
X140503340Y-94204095D01*
X140639911Y-94293465D01*
X140792888Y-94350356D01*
X140796343Y-94350817D01*
X140796347Y-94350818D01*
X140886518Y-94362849D01*
X140954668Y-94371942D01*
X140958141Y-94371626D01*
X140958144Y-94371626D01*
X141035939Y-94364546D01*
X141117210Y-94357150D01*
X141272435Y-94306714D01*
X141390907Y-94236091D01*
X141409627Y-94224932D01*
X141409630Y-94224930D01*
X141412629Y-94223142D01*
X141496783Y-94143003D01*
X141528294Y-94112996D01*
X141528297Y-94112993D01*
X141530823Y-94110587D01*
X141621144Y-93974643D01*
X141679103Y-93822067D01*
X141701818Y-93660442D01*
X141701953Y-93650785D01*
X141702076Y-93641968D01*
X141702076Y-93641961D01*
X141702103Y-93640000D01*
X141701347Y-93633262D01*
X141700956Y-93629778D01*
X142777968Y-93629778D01*
X142778309Y-93633255D01*
X142785152Y-93703041D01*
X142793895Y-93792213D01*
X142794997Y-93795525D01*
X142794997Y-93795526D01*
X142827126Y-93892108D01*
X142845413Y-93947082D01*
X142847223Y-93950071D01*
X142847225Y-93950075D01*
X142863730Y-93977327D01*
X142929962Y-94086689D01*
X143043340Y-94204095D01*
X143179911Y-94293465D01*
X143332888Y-94350356D01*
X143336343Y-94350817D01*
X143336347Y-94350818D01*
X143426518Y-94362849D01*
X143494668Y-94371942D01*
X143498141Y-94371626D01*
X143498144Y-94371626D01*
X143575939Y-94364546D01*
X143657210Y-94357150D01*
X143812435Y-94306714D01*
X143930907Y-94236091D01*
X143949627Y-94224932D01*
X143949630Y-94224930D01*
X143952629Y-94223142D01*
X143976771Y-94200152D01*
X145584971Y-94200152D01*
X145587395Y-94206151D01*
X145717220Y-94291106D01*
X145723408Y-94294232D01*
X145869739Y-94348651D01*
X145876469Y-94350330D01*
X146031219Y-94370978D01*
X146038155Y-94371124D01*
X146193632Y-94356973D01*
X146200430Y-94355578D01*
X146348903Y-94307336D01*
X146355229Y-94304466D01*
X146489324Y-94224530D01*
X146494856Y-94220331D01*
X146509248Y-94206625D01*
X146512921Y-94198337D01*
X146509178Y-94188980D01*
X146058791Y-93738593D01*
X146050000Y-93734952D01*
X146041209Y-93738593D01*
X145588734Y-94191068D01*
X145584971Y-94200152D01*
X143976771Y-94200152D01*
X144036783Y-94143003D01*
X144068294Y-94112996D01*
X144068297Y-94112993D01*
X144070823Y-94110587D01*
X144161144Y-93974643D01*
X144219103Y-93822067D01*
X144241818Y-93660442D01*
X144241953Y-93650785D01*
X144242076Y-93641968D01*
X144242076Y-93641961D01*
X144242103Y-93640000D01*
X144241347Y-93633262D01*
X145318812Y-93633262D01*
X145334046Y-93788634D01*
X145335489Y-93795421D01*
X145384766Y-93943553D01*
X145387682Y-93949863D01*
X145468551Y-94083394D01*
X145472787Y-94088895D01*
X145483074Y-94099547D01*
X145491504Y-94103213D01*
X145500701Y-94099497D01*
X145951407Y-93648791D01*
X145955048Y-93640000D01*
X146144952Y-93640000D01*
X146148593Y-93648791D01*
X146601457Y-94101655D01*
X146610653Y-94105464D01*
X146614704Y-94103843D01*
X146698761Y-93977327D01*
X146701938Y-93971146D01*
X146757377Y-93825202D01*
X146759100Y-93818489D01*
X146781042Y-93662369D01*
X146781342Y-93658464D01*
X146781573Y-93641962D01*
X146781381Y-93638045D01*
X146780454Y-93629778D01*
X147857968Y-93629778D01*
X147858309Y-93633255D01*
X147865152Y-93703041D01*
X147873895Y-93792213D01*
X147874997Y-93795525D01*
X147874997Y-93795526D01*
X147907126Y-93892108D01*
X147925413Y-93947082D01*
X147927223Y-93950071D01*
X147927225Y-93950075D01*
X147943730Y-93977327D01*
X148009962Y-94086689D01*
X148123340Y-94204095D01*
X148259911Y-94293465D01*
X148412888Y-94350356D01*
X148416343Y-94350817D01*
X148416347Y-94350818D01*
X148506518Y-94362849D01*
X148574668Y-94371942D01*
X148578141Y-94371626D01*
X148578144Y-94371626D01*
X148655939Y-94364546D01*
X148737210Y-94357150D01*
X148892435Y-94306714D01*
X149010907Y-94236091D01*
X149029627Y-94224932D01*
X149029630Y-94224930D01*
X149032629Y-94223142D01*
X149116783Y-94143003D01*
X149148294Y-94112996D01*
X149148297Y-94112993D01*
X149150823Y-94110587D01*
X149241144Y-93974643D01*
X149299103Y-93822067D01*
X149321818Y-93660442D01*
X149321953Y-93650785D01*
X149322076Y-93641968D01*
X149322076Y-93641961D01*
X149322103Y-93640000D01*
X149321347Y-93633262D01*
X149320956Y-93629778D01*
X150397968Y-93629778D01*
X150398309Y-93633255D01*
X150405152Y-93703041D01*
X150413895Y-93792213D01*
X150414997Y-93795525D01*
X150414997Y-93795526D01*
X150447126Y-93892108D01*
X150465413Y-93947082D01*
X150467223Y-93950071D01*
X150467225Y-93950075D01*
X150483730Y-93977327D01*
X150549962Y-94086689D01*
X150663340Y-94204095D01*
X150799911Y-94293465D01*
X150952888Y-94350356D01*
X150956343Y-94350817D01*
X150956347Y-94350818D01*
X151046518Y-94362849D01*
X151114668Y-94371942D01*
X151118141Y-94371626D01*
X151118144Y-94371626D01*
X151195939Y-94364546D01*
X151277210Y-94357150D01*
X151432435Y-94306714D01*
X151550907Y-94236091D01*
X151569627Y-94224932D01*
X151569630Y-94224930D01*
X151572629Y-94223142D01*
X151656783Y-94143003D01*
X151688294Y-94112996D01*
X151688297Y-94112993D01*
X151690823Y-94110587D01*
X151781144Y-93974643D01*
X151839103Y-93822067D01*
X151861818Y-93660442D01*
X151861953Y-93650785D01*
X151862076Y-93641968D01*
X151862076Y-93641961D01*
X151862103Y-93640000D01*
X151861347Y-93633262D01*
X151860956Y-93629778D01*
X152937968Y-93629778D01*
X152938309Y-93633255D01*
X152945152Y-93703041D01*
X152953895Y-93792213D01*
X152954997Y-93795525D01*
X152954997Y-93795526D01*
X152987126Y-93892108D01*
X153005413Y-93947082D01*
X153007223Y-93950071D01*
X153007225Y-93950075D01*
X153023730Y-93977327D01*
X153089962Y-94086689D01*
X153203340Y-94204095D01*
X153339911Y-94293465D01*
X153492888Y-94350356D01*
X153496343Y-94350817D01*
X153496347Y-94350818D01*
X153586518Y-94362849D01*
X153654668Y-94371942D01*
X153658141Y-94371626D01*
X153658144Y-94371626D01*
X153735939Y-94364546D01*
X153817210Y-94357150D01*
X153972435Y-94306714D01*
X154090907Y-94236091D01*
X154109627Y-94224932D01*
X154109630Y-94224930D01*
X154112629Y-94223142D01*
X154136771Y-94200152D01*
X155744971Y-94200152D01*
X155747395Y-94206151D01*
X155877220Y-94291106D01*
X155883408Y-94294232D01*
X156029739Y-94348651D01*
X156036469Y-94350330D01*
X156191219Y-94370978D01*
X156198155Y-94371124D01*
X156353632Y-94356973D01*
X156360430Y-94355578D01*
X156508903Y-94307336D01*
X156515229Y-94304466D01*
X156649324Y-94224530D01*
X156654856Y-94220331D01*
X156669248Y-94206625D01*
X156672921Y-94198337D01*
X156669178Y-94188980D01*
X156218791Y-93738593D01*
X156210000Y-93734952D01*
X156201209Y-93738593D01*
X155748734Y-94191068D01*
X155744971Y-94200152D01*
X154136771Y-94200152D01*
X154196783Y-94143003D01*
X154228294Y-94112996D01*
X154228297Y-94112993D01*
X154230823Y-94110587D01*
X154321144Y-93974643D01*
X154379103Y-93822067D01*
X154401818Y-93660442D01*
X154401953Y-93650785D01*
X154402076Y-93641968D01*
X154402076Y-93641961D01*
X154402103Y-93640000D01*
X154401347Y-93633262D01*
X155478812Y-93633262D01*
X155494046Y-93788634D01*
X155495489Y-93795421D01*
X155544766Y-93943553D01*
X155547682Y-93949863D01*
X155628551Y-94083394D01*
X155632787Y-94088895D01*
X155643074Y-94099547D01*
X155651504Y-94103213D01*
X155660701Y-94099497D01*
X156111407Y-93648791D01*
X156115048Y-93640000D01*
X156304952Y-93640000D01*
X156308593Y-93648791D01*
X156761457Y-94101655D01*
X156770653Y-94105464D01*
X156774704Y-94103843D01*
X156858761Y-93977327D01*
X156861938Y-93971146D01*
X156917377Y-93825202D01*
X156919100Y-93818489D01*
X156941042Y-93662369D01*
X156941342Y-93658464D01*
X156941573Y-93641962D01*
X156941381Y-93638045D01*
X156923809Y-93481392D01*
X156922270Y-93474614D01*
X156870930Y-93327185D01*
X156867929Y-93320922D01*
X156785200Y-93188528D01*
X156780891Y-93183092D01*
X156777602Y-93179780D01*
X156768885Y-93176133D01*
X156760012Y-93179790D01*
X156308593Y-93631209D01*
X156304952Y-93640000D01*
X156115048Y-93640000D01*
X156111407Y-93631209D01*
X155659295Y-93179097D01*
X155650328Y-93175383D01*
X155642893Y-93178418D01*
X155641157Y-93180546D01*
X155556589Y-93311769D01*
X155553503Y-93317986D01*
X155500108Y-93464686D01*
X155498475Y-93471439D01*
X155478909Y-93626317D01*
X155478812Y-93633262D01*
X154401347Y-93633262D01*
X154384300Y-93481277D01*
X154384299Y-93481273D01*
X154383910Y-93477804D01*
X154330234Y-93323669D01*
X154243744Y-93185256D01*
X154140534Y-93081322D01*
X155746473Y-93081322D01*
X155750160Y-93090357D01*
X156201210Y-93541407D01*
X156210000Y-93545048D01*
X156218791Y-93541407D01*
X156670564Y-93089634D01*
X156674229Y-93080784D01*
X156670667Y-93072140D01*
X156665472Y-93067963D01*
X156533659Y-92984312D01*
X156527423Y-92981271D01*
X156380349Y-92928901D01*
X156373592Y-92927316D01*
X156218574Y-92908831D01*
X156211638Y-92908783D01*
X156056370Y-92925102D01*
X156049598Y-92926591D01*
X155901806Y-92976904D01*
X155895524Y-92979860D01*
X155762557Y-93061661D01*
X155757088Y-93065933D01*
X155750130Y-93072747D01*
X155746473Y-93081322D01*
X154140534Y-93081322D01*
X154128739Y-93069444D01*
X154103287Y-93053292D01*
X153993879Y-92983859D01*
X153993875Y-92983857D01*
X153990933Y-92981990D01*
X153837176Y-92927240D01*
X153760720Y-92918123D01*
X153678578Y-92908328D01*
X153678574Y-92908328D01*
X153675111Y-92907915D01*
X153582278Y-92917672D01*
X153516262Y-92924610D01*
X153516259Y-92924611D01*
X153512792Y-92924975D01*
X153509491Y-92926099D01*
X153509490Y-92926099D01*
X153505915Y-92927316D01*
X153358286Y-92977573D01*
X153219272Y-93063095D01*
X153216780Y-93065536D01*
X153216778Y-93065537D01*
X153168081Y-93113225D01*
X153102661Y-93177289D01*
X153100771Y-93180222D01*
X153100770Y-93180223D01*
X153095616Y-93188220D01*
X153014247Y-93314481D01*
X153013053Y-93317762D01*
X152969193Y-93438266D01*
X152958424Y-93467852D01*
X152937968Y-93629778D01*
X151860956Y-93629778D01*
X151844300Y-93481277D01*
X151844299Y-93481273D01*
X151843910Y-93477804D01*
X151790234Y-93323669D01*
X151703744Y-93185256D01*
X151588739Y-93069444D01*
X151563287Y-93053292D01*
X151453879Y-92983859D01*
X151453875Y-92983857D01*
X151450933Y-92981990D01*
X151297176Y-92927240D01*
X151220720Y-92918123D01*
X151138578Y-92908328D01*
X151138574Y-92908328D01*
X151135111Y-92907915D01*
X151042278Y-92917672D01*
X150976262Y-92924610D01*
X150976259Y-92924611D01*
X150972792Y-92924975D01*
X150969491Y-92926099D01*
X150969490Y-92926099D01*
X150965915Y-92927316D01*
X150818286Y-92977573D01*
X150679272Y-93063095D01*
X150676780Y-93065536D01*
X150676778Y-93065537D01*
X150628081Y-93113225D01*
X150562661Y-93177289D01*
X150560771Y-93180222D01*
X150560770Y-93180223D01*
X150555616Y-93188220D01*
X150474247Y-93314481D01*
X150473053Y-93317762D01*
X150429193Y-93438266D01*
X150418424Y-93467852D01*
X150397968Y-93629778D01*
X149320956Y-93629778D01*
X149304300Y-93481277D01*
X149304299Y-93481273D01*
X149303910Y-93477804D01*
X149250234Y-93323669D01*
X149163744Y-93185256D01*
X149048739Y-93069444D01*
X149023287Y-93053292D01*
X148913879Y-92983859D01*
X148913875Y-92983857D01*
X148910933Y-92981990D01*
X148757176Y-92927240D01*
X148680720Y-92918123D01*
X148598578Y-92908328D01*
X148598574Y-92908328D01*
X148595111Y-92907915D01*
X148502278Y-92917672D01*
X148436262Y-92924610D01*
X148436259Y-92924611D01*
X148432792Y-92924975D01*
X148429491Y-92926099D01*
X148429490Y-92926099D01*
X148425915Y-92927316D01*
X148278286Y-92977573D01*
X148139272Y-93063095D01*
X148136780Y-93065536D01*
X148136778Y-93065537D01*
X148088081Y-93113225D01*
X148022661Y-93177289D01*
X148020771Y-93180222D01*
X148020770Y-93180223D01*
X148015616Y-93188220D01*
X147934247Y-93314481D01*
X147933053Y-93317762D01*
X147889193Y-93438266D01*
X147878424Y-93467852D01*
X147857968Y-93629778D01*
X146780454Y-93629778D01*
X146763809Y-93481392D01*
X146762270Y-93474614D01*
X146710930Y-93327185D01*
X146707929Y-93320922D01*
X146625200Y-93188528D01*
X146620891Y-93183092D01*
X146617602Y-93179780D01*
X146608885Y-93176133D01*
X146600012Y-93179790D01*
X146148593Y-93631209D01*
X146144952Y-93640000D01*
X145955048Y-93640000D01*
X145951407Y-93631209D01*
X145499295Y-93179097D01*
X145490328Y-93175383D01*
X145482893Y-93178418D01*
X145481157Y-93180546D01*
X145396589Y-93311769D01*
X145393503Y-93317986D01*
X145340108Y-93464686D01*
X145338475Y-93471439D01*
X145318909Y-93626317D01*
X145318812Y-93633262D01*
X144241347Y-93633262D01*
X144224300Y-93481277D01*
X144224299Y-93481273D01*
X144223910Y-93477804D01*
X144170234Y-93323669D01*
X144083744Y-93185256D01*
X143980534Y-93081322D01*
X145586473Y-93081322D01*
X145590160Y-93090357D01*
X146041210Y-93541407D01*
X146050000Y-93545048D01*
X146058791Y-93541407D01*
X146510564Y-93089634D01*
X146514229Y-93080784D01*
X146510667Y-93072140D01*
X146505472Y-93067963D01*
X146373659Y-92984312D01*
X146367423Y-92981271D01*
X146220349Y-92928901D01*
X146213592Y-92927316D01*
X146058574Y-92908831D01*
X146051638Y-92908783D01*
X145896370Y-92925102D01*
X145889598Y-92926591D01*
X145741806Y-92976904D01*
X145735524Y-92979860D01*
X145602557Y-93061661D01*
X145597088Y-93065933D01*
X145590130Y-93072747D01*
X145586473Y-93081322D01*
X143980534Y-93081322D01*
X143968739Y-93069444D01*
X143943287Y-93053292D01*
X143833879Y-92983859D01*
X143833875Y-92983857D01*
X143830933Y-92981990D01*
X143677176Y-92927240D01*
X143600720Y-92918123D01*
X143518578Y-92908328D01*
X143518574Y-92908328D01*
X143515111Y-92907915D01*
X143422278Y-92917672D01*
X143356262Y-92924610D01*
X143356259Y-92924611D01*
X143352792Y-92924975D01*
X143349491Y-92926099D01*
X143349490Y-92926099D01*
X143345915Y-92927316D01*
X143198286Y-92977573D01*
X143059272Y-93063095D01*
X143056780Y-93065536D01*
X143056778Y-93065537D01*
X143008081Y-93113225D01*
X142942661Y-93177289D01*
X142940771Y-93180222D01*
X142940770Y-93180223D01*
X142935616Y-93188220D01*
X142854247Y-93314481D01*
X142853053Y-93317762D01*
X142809193Y-93438266D01*
X142798424Y-93467852D01*
X142777968Y-93629778D01*
X141700956Y-93629778D01*
X141684300Y-93481277D01*
X141684299Y-93481273D01*
X141683910Y-93477804D01*
X141630234Y-93323669D01*
X141543744Y-93185256D01*
X141428739Y-93069444D01*
X141403287Y-93053292D01*
X141293879Y-92983859D01*
X141293875Y-92983857D01*
X141290933Y-92981990D01*
X141137176Y-92927240D01*
X141060720Y-92918123D01*
X140978578Y-92908328D01*
X140978574Y-92908328D01*
X140975111Y-92907915D01*
X140882278Y-92917672D01*
X140816262Y-92924610D01*
X140816259Y-92924611D01*
X140812792Y-92924975D01*
X140809491Y-92926099D01*
X140809490Y-92926099D01*
X140805915Y-92927316D01*
X140658286Y-92977573D01*
X140519272Y-93063095D01*
X140516780Y-93065536D01*
X140516778Y-93065537D01*
X140468081Y-93113225D01*
X140402661Y-93177289D01*
X140400771Y-93180222D01*
X140400770Y-93180223D01*
X140395616Y-93188220D01*
X140314247Y-93314481D01*
X140313053Y-93317762D01*
X140269193Y-93438266D01*
X140258424Y-93467852D01*
X140237968Y-93629778D01*
X139160956Y-93629778D01*
X139144300Y-93481277D01*
X139144299Y-93481273D01*
X139143910Y-93477804D01*
X139090234Y-93323669D01*
X139003744Y-93185256D01*
X138888739Y-93069444D01*
X138863287Y-93053292D01*
X138753879Y-92983859D01*
X138753875Y-92983857D01*
X138750933Y-92981990D01*
X138597176Y-92927240D01*
X138520720Y-92918123D01*
X138438578Y-92908328D01*
X138438574Y-92908328D01*
X138435111Y-92907915D01*
X138342278Y-92917672D01*
X138276262Y-92924610D01*
X138276259Y-92924611D01*
X138272792Y-92924975D01*
X138269491Y-92926099D01*
X138269490Y-92926099D01*
X138265915Y-92927316D01*
X138118286Y-92977573D01*
X137979272Y-93063095D01*
X137976780Y-93065536D01*
X137976778Y-93065537D01*
X137928081Y-93113225D01*
X137862661Y-93177289D01*
X137860771Y-93180222D01*
X137860770Y-93180223D01*
X137855616Y-93188220D01*
X137774247Y-93314481D01*
X137773053Y-93317762D01*
X137729193Y-93438266D01*
X137718424Y-93467852D01*
X137697968Y-93629778D01*
X136620956Y-93629778D01*
X136604300Y-93481277D01*
X136604299Y-93481273D01*
X136603910Y-93477804D01*
X136550234Y-93323669D01*
X136463744Y-93185256D01*
X136348739Y-93069444D01*
X136323287Y-93053292D01*
X136213879Y-92983859D01*
X136213875Y-92983857D01*
X136210933Y-92981990D01*
X136057176Y-92927240D01*
X135980720Y-92918123D01*
X135898578Y-92908328D01*
X135898574Y-92908328D01*
X135895111Y-92907915D01*
X135802278Y-92917672D01*
X135736262Y-92924610D01*
X135736259Y-92924611D01*
X135732792Y-92924975D01*
X135729491Y-92926099D01*
X135729490Y-92926099D01*
X135725915Y-92927316D01*
X135578286Y-92977573D01*
X135439272Y-93063095D01*
X135436780Y-93065536D01*
X135436778Y-93065537D01*
X135388081Y-93113225D01*
X135322661Y-93177289D01*
X135320771Y-93180222D01*
X135320770Y-93180223D01*
X135315616Y-93188220D01*
X135234247Y-93314481D01*
X135233053Y-93317762D01*
X135189193Y-93438266D01*
X135178424Y-93467852D01*
X135157968Y-93629778D01*
X134080454Y-93629778D01*
X134063809Y-93481392D01*
X134062270Y-93474614D01*
X134010930Y-93327185D01*
X134007929Y-93320922D01*
X133925200Y-93188528D01*
X133920891Y-93183092D01*
X133917602Y-93179780D01*
X133908885Y-93176133D01*
X133900012Y-93179790D01*
X133448593Y-93631209D01*
X133444952Y-93640000D01*
X133255048Y-93640000D01*
X133251407Y-93631209D01*
X132799295Y-93179097D01*
X132790328Y-93175383D01*
X132782893Y-93178418D01*
X132781157Y-93180546D01*
X132696589Y-93311769D01*
X132693503Y-93317986D01*
X132640108Y-93464686D01*
X132638475Y-93471439D01*
X132618909Y-93626317D01*
X132618812Y-93633262D01*
X130718319Y-93633262D01*
X130609045Y-93485317D01*
X130605182Y-93481392D01*
X130518105Y-93392938D01*
X130417603Y-93290844D01*
X130279250Y-93185256D01*
X130202419Y-93126620D01*
X130202414Y-93126617D01*
X130200669Y-93125285D01*
X130179135Y-93113225D01*
X130122168Y-93081322D01*
X132886473Y-93081322D01*
X132890160Y-93090357D01*
X133341210Y-93541407D01*
X133350000Y-93545048D01*
X133358791Y-93541407D01*
X133810564Y-93089634D01*
X133814229Y-93080784D01*
X133810667Y-93072140D01*
X133805472Y-93067963D01*
X133673659Y-92984312D01*
X133667423Y-92981271D01*
X133520349Y-92928901D01*
X133513592Y-92927316D01*
X133358574Y-92908831D01*
X133351638Y-92908783D01*
X133196370Y-92925102D01*
X133189598Y-92926591D01*
X133041806Y-92976904D01*
X133035524Y-92979860D01*
X132902557Y-93061661D01*
X132897088Y-93065933D01*
X132890130Y-93072747D01*
X132886473Y-93081322D01*
X130122168Y-93081322D01*
X130029214Y-93029266D01*
X129962572Y-92991945D01*
X129708063Y-92893482D01*
X129559480Y-92859043D01*
X129444373Y-92832362D01*
X129444369Y-92832361D01*
X129442219Y-92831863D01*
X129440017Y-92831672D01*
X129440015Y-92831672D01*
X129172540Y-92808506D01*
X129172538Y-92808506D01*
X129170345Y-92808316D01*
X128897866Y-92823312D01*
X128895696Y-92823744D01*
X128895693Y-92823744D01*
X128632384Y-92876119D01*
X128632382Y-92876120D01*
X128630218Y-92876550D01*
X128628136Y-92877281D01*
X128628133Y-92877282D01*
X128374830Y-92966236D01*
X128374825Y-92966238D01*
X128372741Y-92966970D01*
X128259902Y-93025585D01*
X128132537Y-93091746D01*
X128132534Y-93091748D01*
X128130574Y-93092766D01*
X127908547Y-93251429D01*
X127711090Y-93439792D01*
X127542145Y-93654099D01*
X127405081Y-93890072D01*
X127404258Y-93892104D01*
X127404256Y-93892108D01*
X127370826Y-93974643D01*
X127302633Y-94143003D01*
X127302101Y-94145145D01*
X127238235Y-94402256D01*
X127236846Y-94407846D01*
X127209031Y-94679317D01*
X126873000Y-94679317D01*
X126873000Y-92049438D01*
X131353000Y-92049438D01*
X131353599Y-92055519D01*
X131359169Y-92083518D01*
X131363788Y-92094670D01*
X131385019Y-92126445D01*
X131393555Y-92134981D01*
X131425330Y-92156212D01*
X131436482Y-92160831D01*
X131464481Y-92166401D01*
X131470562Y-92167000D01*
X132004069Y-92167000D01*
X132012859Y-92163359D01*
X132016500Y-92154569D01*
X132143500Y-92154569D01*
X132147141Y-92163359D01*
X132155931Y-92167000D01*
X132689438Y-92167000D01*
X132695519Y-92166401D01*
X132723518Y-92160831D01*
X132734670Y-92156212D01*
X132766445Y-92134981D01*
X132774981Y-92126445D01*
X132796212Y-92094670D01*
X132800831Y-92083518D01*
X132806401Y-92055519D01*
X132807000Y-92049438D01*
X132807000Y-92000152D01*
X134154971Y-92000152D01*
X134157395Y-92006151D01*
X134287220Y-92091106D01*
X134293408Y-92094232D01*
X134439739Y-92148651D01*
X134446469Y-92150330D01*
X134601219Y-92170978D01*
X134608155Y-92171124D01*
X134763632Y-92156973D01*
X134770430Y-92155578D01*
X134918903Y-92107336D01*
X134925229Y-92104466D01*
X135059324Y-92024530D01*
X135064856Y-92020331D01*
X135079248Y-92006625D01*
X135082921Y-91998337D01*
X135079178Y-91988980D01*
X134628791Y-91538593D01*
X134620000Y-91534952D01*
X134611209Y-91538593D01*
X134158734Y-91991068D01*
X134154971Y-92000152D01*
X132807000Y-92000152D01*
X132807000Y-91515931D01*
X132803359Y-91507141D01*
X132794569Y-91503500D01*
X132155931Y-91503500D01*
X132147141Y-91507141D01*
X132143500Y-91515931D01*
X132143500Y-92154569D01*
X132016500Y-92154569D01*
X132016500Y-91515931D01*
X132012859Y-91507141D01*
X132004069Y-91503500D01*
X131365431Y-91503500D01*
X131356641Y-91507141D01*
X131353000Y-91515931D01*
X131353000Y-92049438D01*
X126873000Y-92049438D01*
X126873000Y-91433262D01*
X133888812Y-91433262D01*
X133904046Y-91588634D01*
X133905489Y-91595421D01*
X133954766Y-91743553D01*
X133957682Y-91749863D01*
X134038551Y-91883394D01*
X134042787Y-91888895D01*
X134053074Y-91899547D01*
X134061504Y-91903213D01*
X134070701Y-91899497D01*
X134521407Y-91448791D01*
X134525048Y-91440000D01*
X134714952Y-91440000D01*
X134718593Y-91448791D01*
X135171457Y-91901655D01*
X135180653Y-91905464D01*
X135184704Y-91903843D01*
X135268761Y-91777327D01*
X135271938Y-91771146D01*
X135327377Y-91625202D01*
X135329100Y-91618489D01*
X135351042Y-91462369D01*
X135351342Y-91458464D01*
X135351573Y-91441962D01*
X135351381Y-91438045D01*
X135350454Y-91429778D01*
X136427968Y-91429778D01*
X136428309Y-91433255D01*
X136441280Y-91565541D01*
X136443895Y-91592213D01*
X136444997Y-91595525D01*
X136444997Y-91595526D01*
X136454913Y-91625333D01*
X136495413Y-91747082D01*
X136497223Y-91750071D01*
X136497225Y-91750075D01*
X136512660Y-91775561D01*
X136579962Y-91886689D01*
X136693340Y-92004095D01*
X136829911Y-92093465D01*
X136982888Y-92150356D01*
X136986343Y-92150817D01*
X136986347Y-92150818D01*
X137076518Y-92162849D01*
X137144668Y-92171942D01*
X137148141Y-92171626D01*
X137148144Y-92171626D01*
X137238982Y-92163359D01*
X137307210Y-92157150D01*
X137462435Y-92106714D01*
X137558517Y-92049438D01*
X137599627Y-92024932D01*
X137599630Y-92024930D01*
X137602629Y-92023142D01*
X137668648Y-91960273D01*
X137718294Y-91912996D01*
X137718297Y-91912993D01*
X137720823Y-91910587D01*
X137811144Y-91774643D01*
X137869103Y-91622067D01*
X137891818Y-91460442D01*
X137891953Y-91450785D01*
X137892076Y-91441968D01*
X137892076Y-91441961D01*
X137892103Y-91440000D01*
X137891347Y-91433262D01*
X137890956Y-91429778D01*
X138967968Y-91429778D01*
X138968309Y-91433255D01*
X138981280Y-91565541D01*
X138983895Y-91592213D01*
X138984997Y-91595525D01*
X138984997Y-91595526D01*
X138994913Y-91625333D01*
X139035413Y-91747082D01*
X139037223Y-91750071D01*
X139037225Y-91750075D01*
X139052660Y-91775561D01*
X139119962Y-91886689D01*
X139233340Y-92004095D01*
X139369911Y-92093465D01*
X139522888Y-92150356D01*
X139526343Y-92150817D01*
X139526347Y-92150818D01*
X139616518Y-92162849D01*
X139684668Y-92171942D01*
X139688141Y-92171626D01*
X139688144Y-92171626D01*
X139778982Y-92163359D01*
X139847210Y-92157150D01*
X140002435Y-92106714D01*
X140098517Y-92049438D01*
X140139627Y-92024932D01*
X140139630Y-92024930D01*
X140142629Y-92023142D01*
X140208648Y-91960273D01*
X140258294Y-91912996D01*
X140258297Y-91912993D01*
X140260823Y-91910587D01*
X140351144Y-91774643D01*
X140409103Y-91622067D01*
X140431818Y-91460442D01*
X140431953Y-91450785D01*
X140432076Y-91441968D01*
X140432076Y-91441961D01*
X140432103Y-91440000D01*
X140431347Y-91433262D01*
X140430956Y-91429778D01*
X141507968Y-91429778D01*
X141508309Y-91433255D01*
X141521280Y-91565541D01*
X141523895Y-91592213D01*
X141524997Y-91595525D01*
X141524997Y-91595526D01*
X141534913Y-91625333D01*
X141575413Y-91747082D01*
X141577223Y-91750071D01*
X141577225Y-91750075D01*
X141592660Y-91775561D01*
X141659962Y-91886689D01*
X141773340Y-92004095D01*
X141909911Y-92093465D01*
X142062888Y-92150356D01*
X142066343Y-92150817D01*
X142066347Y-92150818D01*
X142156518Y-92162849D01*
X142224668Y-92171942D01*
X142228141Y-92171626D01*
X142228144Y-92171626D01*
X142318982Y-92163359D01*
X142387210Y-92157150D01*
X142542435Y-92106714D01*
X142638517Y-92049438D01*
X142679627Y-92024932D01*
X142679630Y-92024930D01*
X142682629Y-92023142D01*
X142748648Y-91960273D01*
X142798294Y-91912996D01*
X142798297Y-91912993D01*
X142800823Y-91910587D01*
X142891144Y-91774643D01*
X142949103Y-91622067D01*
X142971818Y-91460442D01*
X142971953Y-91450785D01*
X142972076Y-91441968D01*
X142972076Y-91441961D01*
X142972103Y-91440000D01*
X142971347Y-91433262D01*
X142970956Y-91429778D01*
X144047968Y-91429778D01*
X144048309Y-91433255D01*
X144061280Y-91565541D01*
X144063895Y-91592213D01*
X144064997Y-91595525D01*
X144064997Y-91595526D01*
X144074913Y-91625333D01*
X144115413Y-91747082D01*
X144117223Y-91750071D01*
X144117225Y-91750075D01*
X144132660Y-91775561D01*
X144199962Y-91886689D01*
X144313340Y-92004095D01*
X144449911Y-92093465D01*
X144602888Y-92150356D01*
X144606343Y-92150817D01*
X144606347Y-92150818D01*
X144696518Y-92162849D01*
X144764668Y-92171942D01*
X144768141Y-92171626D01*
X144768144Y-92171626D01*
X144858982Y-92163359D01*
X144927210Y-92157150D01*
X145082435Y-92106714D01*
X145178517Y-92049438D01*
X145219627Y-92024932D01*
X145219630Y-92024930D01*
X145222629Y-92023142D01*
X145288648Y-91960273D01*
X145338294Y-91912996D01*
X145338297Y-91912993D01*
X145340823Y-91910587D01*
X145431144Y-91774643D01*
X145489103Y-91622067D01*
X145511818Y-91460442D01*
X145511953Y-91450785D01*
X145512076Y-91441968D01*
X145512076Y-91441961D01*
X145512103Y-91440000D01*
X145511347Y-91433262D01*
X145510956Y-91429778D01*
X146587968Y-91429778D01*
X146588309Y-91433255D01*
X146601280Y-91565541D01*
X146603895Y-91592213D01*
X146604997Y-91595525D01*
X146604997Y-91595526D01*
X146614913Y-91625333D01*
X146655413Y-91747082D01*
X146657223Y-91750071D01*
X146657225Y-91750075D01*
X146672660Y-91775561D01*
X146739962Y-91886689D01*
X146853340Y-92004095D01*
X146989911Y-92093465D01*
X147142888Y-92150356D01*
X147146343Y-92150817D01*
X147146347Y-92150818D01*
X147236518Y-92162849D01*
X147304668Y-92171942D01*
X147308141Y-92171626D01*
X147308144Y-92171626D01*
X147398982Y-92163359D01*
X147467210Y-92157150D01*
X147622435Y-92106714D01*
X147718517Y-92049438D01*
X147759627Y-92024932D01*
X147759630Y-92024930D01*
X147762629Y-92023142D01*
X147828648Y-91960273D01*
X147878294Y-91912996D01*
X147878297Y-91912993D01*
X147880823Y-91910587D01*
X147971144Y-91774643D01*
X148029103Y-91622067D01*
X148051818Y-91460442D01*
X148051953Y-91450785D01*
X148052076Y-91441968D01*
X148052076Y-91441961D01*
X148052103Y-91440000D01*
X148051347Y-91433262D01*
X148050956Y-91429778D01*
X149127968Y-91429778D01*
X149128309Y-91433255D01*
X149141280Y-91565541D01*
X149143895Y-91592213D01*
X149144997Y-91595525D01*
X149144997Y-91595526D01*
X149154913Y-91625333D01*
X149195413Y-91747082D01*
X149197223Y-91750071D01*
X149197225Y-91750075D01*
X149212660Y-91775561D01*
X149279962Y-91886689D01*
X149393340Y-92004095D01*
X149529911Y-92093465D01*
X149682888Y-92150356D01*
X149686343Y-92150817D01*
X149686347Y-92150818D01*
X149776518Y-92162849D01*
X149844668Y-92171942D01*
X149848141Y-92171626D01*
X149848144Y-92171626D01*
X149938982Y-92163359D01*
X150007210Y-92157150D01*
X150162435Y-92106714D01*
X150258517Y-92049438D01*
X150299627Y-92024932D01*
X150299630Y-92024930D01*
X150302629Y-92023142D01*
X150368648Y-91960273D01*
X150418294Y-91912996D01*
X150418297Y-91912993D01*
X150420823Y-91910587D01*
X150511144Y-91774643D01*
X150569103Y-91622067D01*
X150591818Y-91460442D01*
X150591953Y-91450785D01*
X150592076Y-91441968D01*
X150592076Y-91441961D01*
X150592103Y-91440000D01*
X150591347Y-91433262D01*
X150590956Y-91429778D01*
X151667968Y-91429778D01*
X151668309Y-91433255D01*
X151681280Y-91565541D01*
X151683895Y-91592213D01*
X151684997Y-91595525D01*
X151684997Y-91595526D01*
X151694913Y-91625333D01*
X151735413Y-91747082D01*
X151737223Y-91750071D01*
X151737225Y-91750075D01*
X151752660Y-91775561D01*
X151819962Y-91886689D01*
X151933340Y-92004095D01*
X152069911Y-92093465D01*
X152222888Y-92150356D01*
X152226343Y-92150817D01*
X152226347Y-92150818D01*
X152316518Y-92162849D01*
X152384668Y-92171942D01*
X152388141Y-92171626D01*
X152388144Y-92171626D01*
X152478982Y-92163359D01*
X152547210Y-92157150D01*
X152702435Y-92106714D01*
X152798517Y-92049438D01*
X152839627Y-92024932D01*
X152839630Y-92024930D01*
X152842629Y-92023142D01*
X152908648Y-91960273D01*
X152958294Y-91912996D01*
X152958297Y-91912993D01*
X152960823Y-91910587D01*
X153051144Y-91774643D01*
X153109103Y-91622067D01*
X153131818Y-91460442D01*
X153131953Y-91450785D01*
X153132076Y-91441968D01*
X153132076Y-91441961D01*
X153132103Y-91440000D01*
X153131347Y-91433262D01*
X153130956Y-91429778D01*
X154207968Y-91429778D01*
X154208309Y-91433255D01*
X154221280Y-91565541D01*
X154223895Y-91592213D01*
X154224997Y-91595525D01*
X154224997Y-91595526D01*
X154234913Y-91625333D01*
X154275413Y-91747082D01*
X154277223Y-91750071D01*
X154277225Y-91750075D01*
X154292660Y-91775561D01*
X154359962Y-91886689D01*
X154473340Y-92004095D01*
X154609911Y-92093465D01*
X154762888Y-92150356D01*
X154766343Y-92150817D01*
X154766347Y-92150818D01*
X154856518Y-92162849D01*
X154924668Y-92171942D01*
X154928141Y-92171626D01*
X154928144Y-92171626D01*
X155018982Y-92163359D01*
X155087210Y-92157150D01*
X155242435Y-92106714D01*
X155338517Y-92049438D01*
X155379627Y-92024932D01*
X155379630Y-92024930D01*
X155382629Y-92023142D01*
X155448648Y-91960273D01*
X155498294Y-91912996D01*
X155498297Y-91912993D01*
X155500823Y-91910587D01*
X155591144Y-91774643D01*
X155649103Y-91622067D01*
X155671818Y-91460442D01*
X155671953Y-91450785D01*
X155672076Y-91441968D01*
X155672076Y-91441961D01*
X155672103Y-91440000D01*
X155671347Y-91433262D01*
X155654300Y-91281277D01*
X155654299Y-91281273D01*
X155653910Y-91277804D01*
X155600234Y-91123669D01*
X155513744Y-90985256D01*
X155398739Y-90869444D01*
X155337471Y-90830562D01*
X155263879Y-90783859D01*
X155263875Y-90783857D01*
X155260933Y-90781990D01*
X155107176Y-90727240D01*
X155018290Y-90716641D01*
X154948578Y-90708328D01*
X154948574Y-90708328D01*
X154945111Y-90707915D01*
X154862087Y-90716641D01*
X154786262Y-90724610D01*
X154786259Y-90724611D01*
X154782792Y-90724975D01*
X154779491Y-90726099D01*
X154779490Y-90726099D01*
X154775915Y-90727316D01*
X154628286Y-90777573D01*
X154489272Y-90863095D01*
X154486780Y-90865536D01*
X154486778Y-90865537D01*
X154470659Y-90881322D01*
X154372661Y-90977289D01*
X154370771Y-90980222D01*
X154370770Y-90980223D01*
X154303187Y-91085092D01*
X154284247Y-91114481D01*
X154268314Y-91158255D01*
X154238857Y-91239189D01*
X154228424Y-91267852D01*
X154207968Y-91429778D01*
X153130956Y-91429778D01*
X153114300Y-91281277D01*
X153114299Y-91281273D01*
X153113910Y-91277804D01*
X153060234Y-91123669D01*
X152973744Y-90985256D01*
X152858739Y-90869444D01*
X152797471Y-90830562D01*
X152723879Y-90783859D01*
X152723875Y-90783857D01*
X152720933Y-90781990D01*
X152567176Y-90727240D01*
X152478290Y-90716641D01*
X152408578Y-90708328D01*
X152408574Y-90708328D01*
X152405111Y-90707915D01*
X152322087Y-90716641D01*
X152246262Y-90724610D01*
X152246259Y-90724611D01*
X152242792Y-90724975D01*
X152239491Y-90726099D01*
X152239490Y-90726099D01*
X152235915Y-90727316D01*
X152088286Y-90777573D01*
X151949272Y-90863095D01*
X151946780Y-90865536D01*
X151946778Y-90865537D01*
X151930659Y-90881322D01*
X151832661Y-90977289D01*
X151830771Y-90980222D01*
X151830770Y-90980223D01*
X151763187Y-91085092D01*
X151744247Y-91114481D01*
X151728314Y-91158255D01*
X151698857Y-91239189D01*
X151688424Y-91267852D01*
X151667968Y-91429778D01*
X150590956Y-91429778D01*
X150574300Y-91281277D01*
X150574299Y-91281273D01*
X150573910Y-91277804D01*
X150520234Y-91123669D01*
X150433744Y-90985256D01*
X150318739Y-90869444D01*
X150257471Y-90830562D01*
X150183879Y-90783859D01*
X150183875Y-90783857D01*
X150180933Y-90781990D01*
X150027176Y-90727240D01*
X149938290Y-90716641D01*
X149868578Y-90708328D01*
X149868574Y-90708328D01*
X149865111Y-90707915D01*
X149782087Y-90716641D01*
X149706262Y-90724610D01*
X149706259Y-90724611D01*
X149702792Y-90724975D01*
X149699491Y-90726099D01*
X149699490Y-90726099D01*
X149695915Y-90727316D01*
X149548286Y-90777573D01*
X149409272Y-90863095D01*
X149406780Y-90865536D01*
X149406778Y-90865537D01*
X149390659Y-90881322D01*
X149292661Y-90977289D01*
X149290771Y-90980222D01*
X149290770Y-90980223D01*
X149223187Y-91085092D01*
X149204247Y-91114481D01*
X149188314Y-91158255D01*
X149158857Y-91239189D01*
X149148424Y-91267852D01*
X149127968Y-91429778D01*
X148050956Y-91429778D01*
X148034300Y-91281277D01*
X148034299Y-91281273D01*
X148033910Y-91277804D01*
X147980234Y-91123669D01*
X147893744Y-90985256D01*
X147778739Y-90869444D01*
X147717471Y-90830562D01*
X147643879Y-90783859D01*
X147643875Y-90783857D01*
X147640933Y-90781990D01*
X147487176Y-90727240D01*
X147398290Y-90716641D01*
X147328578Y-90708328D01*
X147328574Y-90708328D01*
X147325111Y-90707915D01*
X147242087Y-90716641D01*
X147166262Y-90724610D01*
X147166259Y-90724611D01*
X147162792Y-90724975D01*
X147159491Y-90726099D01*
X147159490Y-90726099D01*
X147155915Y-90727316D01*
X147008286Y-90777573D01*
X146869272Y-90863095D01*
X146866780Y-90865536D01*
X146866778Y-90865537D01*
X146850659Y-90881322D01*
X146752661Y-90977289D01*
X146750771Y-90980222D01*
X146750770Y-90980223D01*
X146683187Y-91085092D01*
X146664247Y-91114481D01*
X146648314Y-91158255D01*
X146618857Y-91239189D01*
X146608424Y-91267852D01*
X146587968Y-91429778D01*
X145510956Y-91429778D01*
X145494300Y-91281277D01*
X145494299Y-91281273D01*
X145493910Y-91277804D01*
X145440234Y-91123669D01*
X145353744Y-90985256D01*
X145238739Y-90869444D01*
X145177471Y-90830562D01*
X145103879Y-90783859D01*
X145103875Y-90783857D01*
X145100933Y-90781990D01*
X144947176Y-90727240D01*
X144858290Y-90716641D01*
X144788578Y-90708328D01*
X144788574Y-90708328D01*
X144785111Y-90707915D01*
X144702087Y-90716641D01*
X144626262Y-90724610D01*
X144626259Y-90724611D01*
X144622792Y-90724975D01*
X144619491Y-90726099D01*
X144619490Y-90726099D01*
X144615915Y-90727316D01*
X144468286Y-90777573D01*
X144329272Y-90863095D01*
X144326780Y-90865536D01*
X144326778Y-90865537D01*
X144310659Y-90881322D01*
X144212661Y-90977289D01*
X144210771Y-90980222D01*
X144210770Y-90980223D01*
X144143187Y-91085092D01*
X144124247Y-91114481D01*
X144108314Y-91158255D01*
X144078857Y-91239189D01*
X144068424Y-91267852D01*
X144047968Y-91429778D01*
X142970956Y-91429778D01*
X142954300Y-91281277D01*
X142954299Y-91281273D01*
X142953910Y-91277804D01*
X142900234Y-91123669D01*
X142813744Y-90985256D01*
X142698739Y-90869444D01*
X142637471Y-90830562D01*
X142563879Y-90783859D01*
X142563875Y-90783857D01*
X142560933Y-90781990D01*
X142407176Y-90727240D01*
X142318290Y-90716641D01*
X142248578Y-90708328D01*
X142248574Y-90708328D01*
X142245111Y-90707915D01*
X142162087Y-90716641D01*
X142086262Y-90724610D01*
X142086259Y-90724611D01*
X142082792Y-90724975D01*
X142079491Y-90726099D01*
X142079490Y-90726099D01*
X142075915Y-90727316D01*
X141928286Y-90777573D01*
X141789272Y-90863095D01*
X141786780Y-90865536D01*
X141786778Y-90865537D01*
X141770659Y-90881322D01*
X141672661Y-90977289D01*
X141670771Y-90980222D01*
X141670770Y-90980223D01*
X141603187Y-91085092D01*
X141584247Y-91114481D01*
X141568314Y-91158255D01*
X141538857Y-91239189D01*
X141528424Y-91267852D01*
X141507968Y-91429778D01*
X140430956Y-91429778D01*
X140414300Y-91281277D01*
X140414299Y-91281273D01*
X140413910Y-91277804D01*
X140360234Y-91123669D01*
X140273744Y-90985256D01*
X140158739Y-90869444D01*
X140097471Y-90830562D01*
X140023879Y-90783859D01*
X140023875Y-90783857D01*
X140020933Y-90781990D01*
X139867176Y-90727240D01*
X139778290Y-90716641D01*
X139708578Y-90708328D01*
X139708574Y-90708328D01*
X139705111Y-90707915D01*
X139622087Y-90716641D01*
X139546262Y-90724610D01*
X139546259Y-90724611D01*
X139542792Y-90724975D01*
X139539491Y-90726099D01*
X139539490Y-90726099D01*
X139535915Y-90727316D01*
X139388286Y-90777573D01*
X139249272Y-90863095D01*
X139246780Y-90865536D01*
X139246778Y-90865537D01*
X139230659Y-90881322D01*
X139132661Y-90977289D01*
X139130771Y-90980222D01*
X139130770Y-90980223D01*
X139063187Y-91085092D01*
X139044247Y-91114481D01*
X139028314Y-91158255D01*
X138998857Y-91239189D01*
X138988424Y-91267852D01*
X138967968Y-91429778D01*
X137890956Y-91429778D01*
X137874300Y-91281277D01*
X137874299Y-91281273D01*
X137873910Y-91277804D01*
X137820234Y-91123669D01*
X137733744Y-90985256D01*
X137618739Y-90869444D01*
X137557471Y-90830562D01*
X137483879Y-90783859D01*
X137483875Y-90783857D01*
X137480933Y-90781990D01*
X137327176Y-90727240D01*
X137238290Y-90716641D01*
X137168578Y-90708328D01*
X137168574Y-90708328D01*
X137165111Y-90707915D01*
X137082087Y-90716641D01*
X137006262Y-90724610D01*
X137006259Y-90724611D01*
X137002792Y-90724975D01*
X136999491Y-90726099D01*
X136999490Y-90726099D01*
X136995915Y-90727316D01*
X136848286Y-90777573D01*
X136709272Y-90863095D01*
X136706780Y-90865536D01*
X136706778Y-90865537D01*
X136690659Y-90881322D01*
X136592661Y-90977289D01*
X136590771Y-90980222D01*
X136590770Y-90980223D01*
X136523187Y-91085092D01*
X136504247Y-91114481D01*
X136488314Y-91158255D01*
X136458857Y-91239189D01*
X136448424Y-91267852D01*
X136427968Y-91429778D01*
X135350454Y-91429778D01*
X135333809Y-91281392D01*
X135332270Y-91274614D01*
X135280930Y-91127185D01*
X135277929Y-91120922D01*
X135195200Y-90988528D01*
X135190891Y-90983092D01*
X135187602Y-90979780D01*
X135178885Y-90976133D01*
X135170012Y-90979790D01*
X134718593Y-91431209D01*
X134714952Y-91440000D01*
X134525048Y-91440000D01*
X134521407Y-91431209D01*
X134069295Y-90979097D01*
X134060328Y-90975383D01*
X134052893Y-90978418D01*
X134051157Y-90980546D01*
X133966589Y-91111769D01*
X133963503Y-91117986D01*
X133910108Y-91264686D01*
X133908475Y-91271439D01*
X133888909Y-91426317D01*
X133888812Y-91433262D01*
X126873000Y-91433262D01*
X126873000Y-91364069D01*
X131353000Y-91364069D01*
X131356641Y-91372859D01*
X131365431Y-91376500D01*
X132004069Y-91376500D01*
X132012859Y-91372859D01*
X132016500Y-91364069D01*
X132143500Y-91364069D01*
X132147141Y-91372859D01*
X132155931Y-91376500D01*
X132794569Y-91376500D01*
X132803359Y-91372859D01*
X132807000Y-91364069D01*
X132807000Y-90881322D01*
X134156473Y-90881322D01*
X134160160Y-90890357D01*
X134611210Y-91341407D01*
X134620000Y-91345048D01*
X134628791Y-91341407D01*
X135080564Y-90889634D01*
X135084229Y-90880784D01*
X135080667Y-90872140D01*
X135075472Y-90867963D01*
X134943659Y-90784312D01*
X134937423Y-90781271D01*
X134790349Y-90728901D01*
X134783592Y-90727316D01*
X134628574Y-90708831D01*
X134621638Y-90708783D01*
X134466370Y-90725102D01*
X134459598Y-90726591D01*
X134311806Y-90776904D01*
X134305524Y-90779860D01*
X134172557Y-90861661D01*
X134167088Y-90865933D01*
X134160130Y-90872747D01*
X134156473Y-90881322D01*
X132807000Y-90881322D01*
X132807000Y-90830562D01*
X132806401Y-90824481D01*
X132800831Y-90796482D01*
X132796212Y-90785330D01*
X132774981Y-90753555D01*
X132766445Y-90745019D01*
X132734670Y-90723788D01*
X132723518Y-90719169D01*
X132695519Y-90713599D01*
X132689438Y-90713000D01*
X132155931Y-90713000D01*
X132147141Y-90716641D01*
X132143500Y-90725431D01*
X132143500Y-91364069D01*
X132016500Y-91364069D01*
X132016500Y-90725431D01*
X132012859Y-90716641D01*
X132004069Y-90713000D01*
X131470562Y-90713000D01*
X131464481Y-90713599D01*
X131436482Y-90719169D01*
X131425330Y-90723788D01*
X131393555Y-90745019D01*
X131385019Y-90753555D01*
X131363788Y-90785330D01*
X131359169Y-90796482D01*
X131353599Y-90824481D01*
X131353000Y-90830562D01*
X131353000Y-91364069D01*
X126873000Y-91364069D01*
X126873000Y-85726000D01*
X146050000Y-85726000D01*
X146055804Y-85779990D01*
X146067190Y-85832332D01*
X146074384Y-85858555D01*
X146123425Y-85944676D01*
X146169918Y-85998332D01*
X146202502Y-86029773D01*
X146290319Y-86075709D01*
X146293269Y-86076575D01*
X146293271Y-86076576D01*
X146356294Y-86095081D01*
X146358440Y-86095711D01*
X146360647Y-86096028D01*
X146360650Y-86096029D01*
X146386557Y-86099754D01*
X146430000Y-86106000D01*
X150252845Y-86106000D01*
X150293008Y-86120613D01*
X155285569Y-90307923D01*
X155985349Y-90894835D01*
X156390356Y-91234518D01*
X156455474Y-91274194D01*
X156457646Y-91275104D01*
X156457649Y-91275105D01*
X156475372Y-91282526D01*
X156524465Y-91303083D01*
X156571531Y-91317613D01*
X156627052Y-91317945D01*
X156667562Y-91318187D01*
X156667566Y-91318187D01*
X156670635Y-91318205D01*
X156673648Y-91317624D01*
X156673652Y-91317624D01*
X156680224Y-91316357D01*
X156727083Y-91325969D01*
X156753422Y-91365901D01*
X156754058Y-91385562D01*
X156748909Y-91426318D01*
X156748812Y-91433262D01*
X156764046Y-91588634D01*
X156765489Y-91595421D01*
X156814766Y-91743553D01*
X156817682Y-91749863D01*
X156898551Y-91883394D01*
X156902787Y-91888895D01*
X156913074Y-91899547D01*
X156921504Y-91903213D01*
X156930701Y-91899497D01*
X157435806Y-91394391D01*
X157480000Y-91376085D01*
X157524194Y-91394391D01*
X157525609Y-91395806D01*
X157543915Y-91440000D01*
X157525609Y-91484194D01*
X157018734Y-91991068D01*
X157014971Y-92000152D01*
X157017395Y-92006151D01*
X157147220Y-92091106D01*
X157153408Y-92094232D01*
X157299739Y-92148651D01*
X157306469Y-92150330D01*
X157461219Y-92170978D01*
X157468155Y-92171124D01*
X157623632Y-92156973D01*
X157630430Y-92155578D01*
X157662064Y-92145299D01*
X157709752Y-92149052D01*
X157740819Y-92185426D01*
X157743870Y-92203733D01*
X157744286Y-92229551D01*
X157749047Y-92274579D01*
X157786813Y-92366207D01*
X157826153Y-92425307D01*
X157827634Y-92426962D01*
X157827639Y-92426968D01*
X157862336Y-92465730D01*
X157874370Y-92479175D01*
X157876081Y-92480610D01*
X157876083Y-92480612D01*
X157965663Y-92555744D01*
X157987761Y-92598170D01*
X157988000Y-92603631D01*
X157988000Y-92737334D01*
X157990417Y-92772289D01*
X157995189Y-92806635D01*
X158031795Y-92906961D01*
X158069608Y-92967050D01*
X158097046Y-93003073D01*
X158100647Y-93005722D01*
X158100648Y-93005723D01*
X158174397Y-93059978D01*
X158174402Y-93059981D01*
X158176876Y-93061801D01*
X158179661Y-93063105D01*
X158182297Y-93064671D01*
X158181668Y-93065731D01*
X158211233Y-93098110D01*
X158209063Y-93145896D01*
X158196194Y-93164036D01*
X158191506Y-93168627D01*
X158185159Y-93174842D01*
X158185156Y-93174846D01*
X158182661Y-93177289D01*
X158094247Y-93314481D01*
X158093053Y-93317762D01*
X158049193Y-93438266D01*
X158038424Y-93467852D01*
X158017968Y-93629778D01*
X158018309Y-93633255D01*
X158025152Y-93703041D01*
X158033895Y-93792213D01*
X158034997Y-93795525D01*
X158034997Y-93795526D01*
X158067126Y-93892108D01*
X158085413Y-93947082D01*
X158087223Y-93950071D01*
X158087225Y-93950075D01*
X158103730Y-93977327D01*
X158169962Y-94086689D01*
X158172388Y-94089201D01*
X158199814Y-94117602D01*
X158217345Y-94162109D01*
X158198271Y-94205977D01*
X158185783Y-94215329D01*
X158151996Y-94234569D01*
X158151993Y-94234571D01*
X158149324Y-94236091D01*
X158095668Y-94282584D01*
X158064227Y-94315168D01*
X158018291Y-94402985D01*
X158017425Y-94405935D01*
X158017424Y-94405937D01*
X158016218Y-94410045D01*
X157998289Y-94471106D01*
X157988000Y-94542666D01*
X157988000Y-95187611D01*
X157969694Y-95231805D01*
X157925500Y-95250111D01*
X157892011Y-95240382D01*
X157803659Y-95184312D01*
X157797423Y-95181271D01*
X157650349Y-95128901D01*
X157643592Y-95127316D01*
X157488574Y-95108831D01*
X157481638Y-95108783D01*
X157326370Y-95125102D01*
X157319598Y-95126591D01*
X157171806Y-95176904D01*
X157165524Y-95179860D01*
X157032557Y-95261661D01*
X157027088Y-95265933D01*
X157020130Y-95272747D01*
X157016473Y-95281322D01*
X157020160Y-95290357D01*
X157525609Y-95795806D01*
X157543915Y-95840000D01*
X157525609Y-95884194D01*
X157480000Y-95929803D01*
X157018734Y-96391068D01*
X157014971Y-96400152D01*
X157017395Y-96406151D01*
X157147220Y-96491106D01*
X157153408Y-96494232D01*
X157299739Y-96548651D01*
X157306469Y-96550330D01*
X157461219Y-96570978D01*
X157468155Y-96571124D01*
X157623632Y-96556973D01*
X157630430Y-96555578D01*
X157778903Y-96507336D01*
X157785229Y-96504466D01*
X157893497Y-96439926D01*
X157940832Y-96433021D01*
X157979185Y-96461608D01*
X157988000Y-96493611D01*
X157988000Y-97137334D01*
X157990417Y-97172289D01*
X157995189Y-97206635D01*
X158031795Y-97306961D01*
X158069608Y-97367050D01*
X158097046Y-97403073D01*
X158100647Y-97405722D01*
X158100648Y-97405723D01*
X158174397Y-97459978D01*
X158174402Y-97459981D01*
X158176876Y-97461801D01*
X158179661Y-97463105D01*
X158182297Y-97464671D01*
X158181668Y-97465731D01*
X158211233Y-97498110D01*
X158209063Y-97545896D01*
X158196194Y-97564036D01*
X158191506Y-97568627D01*
X158185159Y-97574842D01*
X158185156Y-97574846D01*
X158182661Y-97577289D01*
X158094247Y-97714481D01*
X158038424Y-97867852D01*
X158017968Y-98029778D01*
X158033895Y-98192213D01*
X158034997Y-98195525D01*
X158034997Y-98195526D01*
X158044913Y-98225333D01*
X158085413Y-98347082D01*
X158087223Y-98350071D01*
X158087225Y-98350075D01*
X158103730Y-98377327D01*
X158169962Y-98486689D01*
X158283340Y-98604095D01*
X158419911Y-98693465D01*
X158572888Y-98750356D01*
X158576343Y-98750817D01*
X158576347Y-98750818D01*
X158658863Y-98761827D01*
X158729808Y-98771294D01*
X158771192Y-98795283D01*
X158782840Y-98845435D01*
X158782123Y-98849041D01*
X158780637Y-98853253D01*
X158775332Y-98952216D01*
X158785436Y-99022490D01*
X158785755Y-99023842D01*
X158785757Y-99023850D01*
X158794821Y-99062207D01*
X158794822Y-99062210D01*
X158795849Y-99066555D01*
X158798060Y-99070437D01*
X158798060Y-99070438D01*
X158799565Y-99073080D01*
X158844890Y-99152676D01*
X158891383Y-99206332D01*
X158923967Y-99237773D01*
X159011784Y-99283709D01*
X159014734Y-99284575D01*
X159014736Y-99284576D01*
X159054423Y-99296229D01*
X159079905Y-99303711D01*
X159082112Y-99304028D01*
X159082115Y-99304029D01*
X159108022Y-99307754D01*
X159151465Y-99314000D01*
X160887305Y-99314000D01*
X160942478Y-99307935D01*
X160995909Y-99296045D01*
X160996721Y-99295816D01*
X161019443Y-99289408D01*
X161019444Y-99289408D01*
X161023240Y-99288337D01*
X161033638Y-99282284D01*
X161106236Y-99240024D01*
X161106239Y-99240022D01*
X161108891Y-99238478D01*
X161162102Y-99191476D01*
X161170155Y-99182969D01*
X161190156Y-99161843D01*
X161190158Y-99161840D01*
X161193232Y-99158593D01*
X161238329Y-99070343D01*
X161251886Y-99022490D01*
X161257297Y-99003392D01*
X161257299Y-99003383D01*
X161257681Y-99002035D01*
X161266090Y-98957548D01*
X161256319Y-98858925D01*
X161253414Y-98849369D01*
X161258076Y-98801761D01*
X161295037Y-98771394D01*
X161307548Y-98768950D01*
X161367554Y-98763489D01*
X161437210Y-98757150D01*
X161592435Y-98706714D01*
X161662532Y-98664928D01*
X161729627Y-98624932D01*
X161729630Y-98624930D01*
X161732629Y-98623142D01*
X161795552Y-98563221D01*
X161848294Y-98512996D01*
X161848297Y-98512993D01*
X161850823Y-98510587D01*
X161941144Y-98374643D01*
X161999103Y-98222067D01*
X162021818Y-98060442D01*
X162021953Y-98050785D01*
X162022076Y-98041968D01*
X162022076Y-98041961D01*
X162022103Y-98040000D01*
X162021347Y-98033262D01*
X162004300Y-97881277D01*
X162004299Y-97881273D01*
X162003910Y-97877804D01*
X161950234Y-97723669D01*
X161863744Y-97585256D01*
X161748739Y-97469444D01*
X161723287Y-97453292D01*
X161613879Y-97383859D01*
X161613875Y-97383857D01*
X161610933Y-97381990D01*
X161457176Y-97327240D01*
X161325122Y-97311494D01*
X161283407Y-97288085D01*
X161270463Y-97242034D01*
X161272553Y-97231832D01*
X161279711Y-97207456D01*
X161290000Y-97135896D01*
X161290000Y-96258474D01*
X161286483Y-96216353D01*
X161279553Y-96175142D01*
X161276605Y-96160322D01*
X161270654Y-96147082D01*
X161237226Y-96072718D01*
X161235972Y-96069928D01*
X161194790Y-96012096D01*
X161165341Y-95977700D01*
X161082288Y-95923625D01*
X161079438Y-95922484D01*
X161079436Y-95922483D01*
X161020846Y-95899028D01*
X160986620Y-95865609D01*
X160986194Y-95829778D01*
X161827968Y-95829778D01*
X161828309Y-95833255D01*
X161841280Y-95965541D01*
X161843895Y-95992213D01*
X161844997Y-95995525D01*
X161844997Y-95995526D01*
X161877584Y-96093485D01*
X161895413Y-96147082D01*
X161897223Y-96150071D01*
X161897225Y-96150075D01*
X161912660Y-96175561D01*
X161979962Y-96286689D01*
X162093340Y-96404095D01*
X162096259Y-96406005D01*
X162096260Y-96406006D01*
X162118151Y-96420331D01*
X162229911Y-96493465D01*
X162382888Y-96550356D01*
X162386343Y-96550817D01*
X162386347Y-96550818D01*
X162476518Y-96562849D01*
X162544668Y-96571942D01*
X162548141Y-96571626D01*
X162548144Y-96571626D01*
X162625939Y-96564546D01*
X162707210Y-96557150D01*
X162862435Y-96506714D01*
X162940433Y-96460218D01*
X162999627Y-96424932D01*
X162999630Y-96424930D01*
X163002629Y-96423142D01*
X163108993Y-96321853D01*
X163118294Y-96312996D01*
X163118297Y-96312993D01*
X163120823Y-96310587D01*
X163211144Y-96174643D01*
X163269103Y-96022067D01*
X163291818Y-95860442D01*
X163291953Y-95850785D01*
X163292076Y-95841968D01*
X163292076Y-95841961D01*
X163292103Y-95840000D01*
X163291347Y-95833262D01*
X163274300Y-95681277D01*
X163274299Y-95681273D01*
X163273910Y-95677804D01*
X163220234Y-95523669D01*
X163133744Y-95385256D01*
X163018739Y-95269444D01*
X162988275Y-95250111D01*
X162883879Y-95183859D01*
X162883875Y-95183857D01*
X162880933Y-95181990D01*
X162727176Y-95127240D01*
X162650720Y-95118123D01*
X162568578Y-95108328D01*
X162568574Y-95108328D01*
X162565111Y-95107915D01*
X162472278Y-95117672D01*
X162406262Y-95124610D01*
X162406259Y-95124611D01*
X162402792Y-95124975D01*
X162399491Y-95126099D01*
X162399490Y-95126099D01*
X162395915Y-95127316D01*
X162248286Y-95177573D01*
X162109272Y-95263095D01*
X162106780Y-95265536D01*
X162106778Y-95265537D01*
X162090659Y-95281322D01*
X161992661Y-95377289D01*
X161990771Y-95380222D01*
X161990770Y-95380223D01*
X161985616Y-95388220D01*
X161904247Y-95514481D01*
X161848424Y-95667852D01*
X161827968Y-95829778D01*
X160986194Y-95829778D01*
X160986051Y-95817777D01*
X161019470Y-95783551D01*
X161029699Y-95780180D01*
X161042555Y-95777142D01*
X161095774Y-95746837D01*
X161126007Y-95729621D01*
X161126008Y-95729620D01*
X161128676Y-95728101D01*
X161182332Y-95681608D01*
X161213773Y-95649024D01*
X161259709Y-95561207D01*
X161264232Y-95545805D01*
X161279081Y-95495232D01*
X161279081Y-95495230D01*
X161279711Y-95493086D01*
X161281190Y-95482804D01*
X161289682Y-95423735D01*
X161290000Y-95421526D01*
X161290000Y-94679317D01*
X163569031Y-94679317D01*
X163569695Y-94696206D01*
X163579745Y-94951998D01*
X163628773Y-95220449D01*
X163715137Y-95479315D01*
X163716124Y-95481291D01*
X163716126Y-95481295D01*
X163763096Y-95575296D01*
X163837114Y-95723428D01*
X163838366Y-95725239D01*
X163838368Y-95725243D01*
X163991009Y-95946098D01*
X163991014Y-95946105D01*
X163992269Y-95947920D01*
X163993773Y-95949547D01*
X164176005Y-96146686D01*
X164176012Y-96146692D01*
X164177508Y-96148311D01*
X164389135Y-96320601D01*
X164391012Y-96321731D01*
X164391019Y-96321736D01*
X164621037Y-96460218D01*
X164622926Y-96461355D01*
X164874217Y-96567763D01*
X164965840Y-96592056D01*
X165135869Y-96637139D01*
X165135875Y-96637140D01*
X165137994Y-96637702D01*
X165140174Y-96637960D01*
X165140179Y-96637961D01*
X165406797Y-96669517D01*
X165408994Y-96669777D01*
X165411204Y-96669725D01*
X165411205Y-96669725D01*
X165545402Y-96666562D01*
X165681810Y-96663348D01*
X165683989Y-96662985D01*
X165683992Y-96662985D01*
X165753207Y-96651464D01*
X165950998Y-96618543D01*
X165953104Y-96617877D01*
X166209087Y-96536921D01*
X166209094Y-96536918D01*
X166211188Y-96536256D01*
X166457188Y-96418128D01*
X166684089Y-96266518D01*
X166887364Y-96084449D01*
X167062958Y-95875555D01*
X167072384Y-95860442D01*
X167206196Y-95645880D01*
X167207366Y-95644004D01*
X167317708Y-95394415D01*
X167320291Y-95385256D01*
X167391183Y-95133894D01*
X167391184Y-95133890D01*
X167391782Y-95131769D01*
X167428110Y-94861306D01*
X167431922Y-94740000D01*
X167418108Y-94544899D01*
X167412804Y-94469989D01*
X167412803Y-94469985D01*
X167412648Y-94467790D01*
X167412184Y-94465634D01*
X167355679Y-94203178D01*
X167355677Y-94203172D01*
X167355212Y-94201011D01*
X167313963Y-94089201D01*
X167261523Y-93947054D01*
X167261523Y-93947053D01*
X167260760Y-93944986D01*
X167131176Y-93704824D01*
X166969045Y-93485317D01*
X166965182Y-93481392D01*
X166878105Y-93392938D01*
X166777603Y-93290844D01*
X166639250Y-93185256D01*
X166562419Y-93126620D01*
X166562414Y-93126617D01*
X166560669Y-93125285D01*
X166539135Y-93113225D01*
X166389214Y-93029266D01*
X166322572Y-92991945D01*
X166068063Y-92893482D01*
X165919480Y-92859043D01*
X165804373Y-92832362D01*
X165804369Y-92832361D01*
X165802219Y-92831863D01*
X165800017Y-92831672D01*
X165800015Y-92831672D01*
X165532540Y-92808506D01*
X165532538Y-92808506D01*
X165530345Y-92808316D01*
X165257866Y-92823312D01*
X165255696Y-92823744D01*
X165255693Y-92823744D01*
X164992384Y-92876119D01*
X164992382Y-92876120D01*
X164990218Y-92876550D01*
X164988136Y-92877281D01*
X164988133Y-92877282D01*
X164734830Y-92966236D01*
X164734825Y-92966238D01*
X164732741Y-92966970D01*
X164619902Y-93025585D01*
X164492537Y-93091746D01*
X164492534Y-93091748D01*
X164490574Y-93092766D01*
X164268547Y-93251429D01*
X164071090Y-93439792D01*
X163902145Y-93654099D01*
X163765081Y-93890072D01*
X163764258Y-93892104D01*
X163764256Y-93892108D01*
X163730826Y-93974643D01*
X163662633Y-94143003D01*
X163662101Y-94145145D01*
X163598235Y-94402256D01*
X163596846Y-94407846D01*
X163569031Y-94679317D01*
X161290000Y-94679317D01*
X161290000Y-94544104D01*
X161279367Y-94471383D01*
X161278718Y-94469213D01*
X161278717Y-94469206D01*
X161272192Y-94447369D01*
X161277079Y-94399784D01*
X161314183Y-94369592D01*
X161326411Y-94367233D01*
X161437210Y-94357150D01*
X161592435Y-94306714D01*
X161710907Y-94236091D01*
X161729627Y-94224932D01*
X161729630Y-94224930D01*
X161732629Y-94223142D01*
X161816783Y-94143003D01*
X161848294Y-94112996D01*
X161848297Y-94112993D01*
X161850823Y-94110587D01*
X161941144Y-93974643D01*
X161999103Y-93822067D01*
X162021818Y-93660442D01*
X162021953Y-93650785D01*
X162022076Y-93641968D01*
X162022076Y-93641961D01*
X162022103Y-93640000D01*
X162021347Y-93633262D01*
X162004300Y-93481277D01*
X162004299Y-93481273D01*
X162003910Y-93477804D01*
X161950234Y-93323669D01*
X161863744Y-93185256D01*
X161748739Y-93069444D01*
X161723287Y-93053292D01*
X161613879Y-92983859D01*
X161613875Y-92983857D01*
X161610933Y-92981990D01*
X161457176Y-92927240D01*
X161325122Y-92911494D01*
X161283407Y-92888085D01*
X161270463Y-92842034D01*
X161272553Y-92831832D01*
X161279711Y-92807456D01*
X161290000Y-92735896D01*
X161290000Y-91858474D01*
X161286483Y-91816353D01*
X161279553Y-91775142D01*
X161276605Y-91760322D01*
X161270654Y-91747082D01*
X161237226Y-91672718D01*
X161235972Y-91669928D01*
X161194790Y-91612096D01*
X161165341Y-91577700D01*
X161082288Y-91523625D01*
X161079438Y-91522484D01*
X161079436Y-91522483D01*
X161020846Y-91499028D01*
X160986620Y-91465609D01*
X160986194Y-91429778D01*
X161827968Y-91429778D01*
X161828309Y-91433255D01*
X161841280Y-91565541D01*
X161843895Y-91592213D01*
X161844997Y-91595525D01*
X161844997Y-91595526D01*
X161854913Y-91625333D01*
X161895413Y-91747082D01*
X161897223Y-91750071D01*
X161897225Y-91750075D01*
X161912660Y-91775561D01*
X161979962Y-91886689D01*
X162093340Y-92004095D01*
X162229911Y-92093465D01*
X162382888Y-92150356D01*
X162386343Y-92150817D01*
X162386347Y-92150818D01*
X162476518Y-92162849D01*
X162544668Y-92171942D01*
X162548141Y-92171626D01*
X162548144Y-92171626D01*
X162638982Y-92163359D01*
X162707210Y-92157150D01*
X162862435Y-92106714D01*
X162958517Y-92049438D01*
X162999627Y-92024932D01*
X162999630Y-92024930D01*
X163002629Y-92023142D01*
X163068648Y-91960273D01*
X163118294Y-91912996D01*
X163118297Y-91912993D01*
X163120823Y-91910587D01*
X163211144Y-91774643D01*
X163269103Y-91622067D01*
X163291818Y-91460442D01*
X163291953Y-91450785D01*
X163292076Y-91441968D01*
X163292076Y-91441961D01*
X163292103Y-91440000D01*
X163291347Y-91433262D01*
X163274300Y-91281277D01*
X163274299Y-91281273D01*
X163273910Y-91277804D01*
X163220234Y-91123669D01*
X163133744Y-90985256D01*
X163018739Y-90869444D01*
X162957471Y-90830562D01*
X162883879Y-90783859D01*
X162883875Y-90783857D01*
X162880933Y-90781990D01*
X162727176Y-90727240D01*
X162638290Y-90716641D01*
X162568578Y-90708328D01*
X162568574Y-90708328D01*
X162565111Y-90707915D01*
X162482087Y-90716641D01*
X162406262Y-90724610D01*
X162406259Y-90724611D01*
X162402792Y-90724975D01*
X162399491Y-90726099D01*
X162399490Y-90726099D01*
X162395915Y-90727316D01*
X162248286Y-90777573D01*
X162109272Y-90863095D01*
X162106780Y-90865536D01*
X162106778Y-90865537D01*
X162090659Y-90881322D01*
X161992661Y-90977289D01*
X161990771Y-90980222D01*
X161990770Y-90980223D01*
X161923187Y-91085092D01*
X161904247Y-91114481D01*
X161888314Y-91158255D01*
X161858857Y-91239189D01*
X161848424Y-91267852D01*
X161827968Y-91429778D01*
X160986194Y-91429778D01*
X160986051Y-91417777D01*
X161019470Y-91383551D01*
X161029699Y-91380180D01*
X161042555Y-91377142D01*
X161046438Y-91374931D01*
X161126007Y-91329621D01*
X161126008Y-91329620D01*
X161128676Y-91328101D01*
X161182332Y-91281608D01*
X161213773Y-91249024D01*
X161259709Y-91161207D01*
X161269761Y-91126975D01*
X161279081Y-91095232D01*
X161279081Y-91095230D01*
X161279711Y-91093086D01*
X161280861Y-91085092D01*
X161289682Y-91023735D01*
X161290000Y-91021526D01*
X161290000Y-90481778D01*
X161287359Y-90445243D01*
X161282145Y-90409371D01*
X161244039Y-90307923D01*
X161205471Y-90248316D01*
X161157959Y-90193826D01*
X161156274Y-90192375D01*
X161156271Y-90192372D01*
X159971948Y-89172539D01*
X159971588Y-89172229D01*
X159959380Y-89162357D01*
X159946981Y-89152949D01*
X159946651Y-89152714D01*
X159946618Y-89152690D01*
X159934553Y-89144110D01*
X159934539Y-89144101D01*
X159934194Y-89143855D01*
X159933823Y-89143608D01*
X159858750Y-89093634D01*
X159845541Y-89081824D01*
X159810050Y-89039603D01*
X159796292Y-89024512D01*
X159782059Y-89010108D01*
X159767126Y-88996164D01*
X152093183Y-82388047D01*
X152079349Y-82376951D01*
X152069264Y-82369425D01*
X152067478Y-82368092D01*
X152067473Y-82368089D01*
X152065254Y-82366433D01*
X151984907Y-82326291D01*
X151982234Y-82325506D01*
X151982231Y-82325505D01*
X151918932Y-82306919D01*
X151918930Y-82306919D01*
X151916786Y-82306289D01*
X151914579Y-82305972D01*
X151914576Y-82305971D01*
X151884341Y-82301624D01*
X151845226Y-82296000D01*
X146430000Y-82296000D01*
X146428344Y-82296178D01*
X146377680Y-82301624D01*
X146377671Y-82301625D01*
X146376010Y-82301804D01*
X146323668Y-82313190D01*
X146322865Y-82313410D01*
X146322854Y-82313413D01*
X146301214Y-82319350D01*
X146297445Y-82320384D01*
X146294052Y-82322316D01*
X146294050Y-82322317D01*
X146218759Y-82365191D01*
X146211324Y-82369425D01*
X146157668Y-82415918D01*
X146126227Y-82448502D01*
X146080291Y-82536319D01*
X146060289Y-82604440D01*
X146050000Y-82676000D01*
X146050000Y-85726000D01*
X126873000Y-85726000D01*
X126873000Y-76643500D01*
X126891306Y-76599306D01*
X126935500Y-76581000D01*
X159576500Y-76581000D01*
X159620694Y-76599306D01*
G37*
%TD.AperFunction*%
%TD*%
%TA.AperFunction,Conductor*%
%TO.N,+3V3*%
G36*
X151913347Y-82570002D02*
G01*
X151927442Y-82580520D01*
X159601385Y-89188637D01*
X159615618Y-89203041D01*
X159674498Y-89273087D01*
X159674500Y-89273089D01*
X159680276Y-89279960D01*
X159687747Y-89284933D01*
X159687748Y-89284934D01*
X159793448Y-89355294D01*
X159805847Y-89364702D01*
X160992218Y-90386299D01*
X161030786Y-90445906D01*
X161036000Y-90481778D01*
X161036000Y-91021526D01*
X161015998Y-91089647D01*
X160962342Y-91136140D01*
X160892068Y-91146244D01*
X160827488Y-91116750D01*
X160800881Y-91084526D01*
X160718011Y-90940991D01*
X160717849Y-90940768D01*
X160708393Y-90934943D01*
X160708315Y-90934944D01*
X160699034Y-90940571D01*
X160212417Y-91427188D01*
X160204803Y-91441132D01*
X160204934Y-91442965D01*
X160209185Y-91449580D01*
X160696982Y-91937377D01*
X160710926Y-91944991D01*
X160711002Y-91944986D01*
X160716275Y-91941400D01*
X160718011Y-91939009D01*
X160800881Y-91795474D01*
X160852263Y-91746481D01*
X160921977Y-91733045D01*
X160987888Y-91759431D01*
X161029070Y-91817263D01*
X161036000Y-91858474D01*
X161036000Y-92735896D01*
X161015998Y-92804017D01*
X160961250Y-92851002D01*
X160958021Y-92852440D01*
X160866427Y-92893220D01*
X160866425Y-92893221D01*
X160860397Y-92895905D01*
X160855056Y-92899785D01*
X160855055Y-92899786D01*
X160720422Y-92997602D01*
X160720420Y-92997604D01*
X160715078Y-93001485D01*
X160594887Y-93134971D01*
X160505075Y-93290529D01*
X160449569Y-93461361D01*
X160430793Y-93640000D01*
X160449569Y-93818639D01*
X160505075Y-93989471D01*
X160594887Y-94145029D01*
X160715078Y-94278515D01*
X160720420Y-94282396D01*
X160720422Y-94282398D01*
X160781397Y-94326699D01*
X160860396Y-94384095D01*
X160866422Y-94386778D01*
X160866429Y-94386782D01*
X160961248Y-94428997D01*
X161015344Y-94474977D01*
X161036000Y-94544104D01*
X161036000Y-95421526D01*
X161015998Y-95489647D01*
X160962342Y-95536140D01*
X160892068Y-95546244D01*
X160827488Y-95516750D01*
X160800881Y-95484526D01*
X160718011Y-95340991D01*
X160717849Y-95340768D01*
X160708393Y-95334943D01*
X160708315Y-95334944D01*
X160699034Y-95340571D01*
X160212417Y-95827188D01*
X160204803Y-95841132D01*
X160204934Y-95842965D01*
X160209185Y-95849580D01*
X160696982Y-96337377D01*
X160710926Y-96344991D01*
X160711002Y-96344986D01*
X160716275Y-96341400D01*
X160718011Y-96339009D01*
X160800881Y-96195474D01*
X160852263Y-96146481D01*
X160921977Y-96133045D01*
X160987888Y-96159431D01*
X161029070Y-96217263D01*
X161036000Y-96258474D01*
X161036000Y-97135896D01*
X161015998Y-97204017D01*
X160961250Y-97251002D01*
X160958021Y-97252440D01*
X160866427Y-97293220D01*
X160866425Y-97293221D01*
X160860397Y-97295905D01*
X160855056Y-97299785D01*
X160855055Y-97299786D01*
X160720422Y-97397602D01*
X160720420Y-97397604D01*
X160715078Y-97401485D01*
X160594887Y-97534971D01*
X160505075Y-97690529D01*
X160449569Y-97861361D01*
X160430793Y-98040000D01*
X160449569Y-98218639D01*
X160505075Y-98389471D01*
X160594887Y-98545029D01*
X160715078Y-98678515D01*
X160720420Y-98682396D01*
X160720422Y-98682398D01*
X160781397Y-98726699D01*
X160860396Y-98784095D01*
X160866424Y-98786779D01*
X160866426Y-98786780D01*
X160938554Y-98818893D01*
X160992650Y-98864873D01*
X161013299Y-98932800D01*
X160993947Y-99001108D01*
X160940736Y-99048110D01*
X160887305Y-99060000D01*
X159151465Y-99060000D01*
X159083344Y-99039998D01*
X159036851Y-98986342D01*
X159026747Y-98916068D01*
X159056241Y-98851488D01*
X159100216Y-98818893D01*
X159173322Y-98786344D01*
X159184694Y-98779778D01*
X159242714Y-98737624D01*
X159251138Y-98726699D01*
X159244235Y-98713840D01*
X158659490Y-98129095D01*
X158625464Y-98066783D01*
X158627299Y-98041132D01*
X158934803Y-98041132D01*
X158934934Y-98042965D01*
X158939185Y-98049580D01*
X159426982Y-98537377D01*
X159440926Y-98544991D01*
X159441002Y-98544986D01*
X159446275Y-98541400D01*
X159448011Y-98539010D01*
X159531161Y-98394989D01*
X159536507Y-98382981D01*
X159587899Y-98224814D01*
X159590629Y-98211971D01*
X159608014Y-98046565D01*
X159608014Y-98033435D01*
X159590629Y-97868029D01*
X159587899Y-97855186D01*
X159536507Y-97697019D01*
X159531161Y-97685011D01*
X159448011Y-97540990D01*
X159447849Y-97540768D01*
X159438393Y-97534943D01*
X159438315Y-97534944D01*
X159429034Y-97540571D01*
X158942417Y-98027188D01*
X158934803Y-98041132D01*
X158627299Y-98041132D01*
X158630529Y-97995968D01*
X158659490Y-97950905D01*
X159244558Y-97365837D01*
X159251171Y-97353726D01*
X159242343Y-97342107D01*
X159184694Y-97300222D01*
X159173322Y-97293656D01*
X159021385Y-97226009D01*
X159008897Y-97221952D01*
X158846216Y-97187372D01*
X158833156Y-97186000D01*
X158666844Y-97186000D01*
X158653784Y-97187372D01*
X158491103Y-97221952D01*
X158478607Y-97226012D01*
X158419249Y-97252440D01*
X158348882Y-97261875D01*
X158284585Y-97231769D01*
X158246772Y-97171680D01*
X158242000Y-97137334D01*
X158242000Y-96526274D01*
X159518829Y-96526274D01*
X159527657Y-96537893D01*
X159585306Y-96579778D01*
X159596678Y-96586344D01*
X159748615Y-96653991D01*
X159761103Y-96658048D01*
X159923784Y-96692628D01*
X159936844Y-96694000D01*
X160103156Y-96694000D01*
X160116216Y-96692628D01*
X160278897Y-96658048D01*
X160291385Y-96653991D01*
X160443322Y-96586344D01*
X160454694Y-96579778D01*
X160512714Y-96537624D01*
X160521138Y-96526699D01*
X160514235Y-96513840D01*
X160032812Y-96032417D01*
X160018868Y-96024803D01*
X160017035Y-96024934D01*
X160010420Y-96029185D01*
X159525442Y-96514163D01*
X159518829Y-96526274D01*
X158242000Y-96526274D01*
X158242000Y-96262939D01*
X158258882Y-96199937D01*
X158261459Y-96195474D01*
X158264925Y-96189471D01*
X158274686Y-96159431D01*
X158318391Y-96024918D01*
X158318391Y-96024917D01*
X158320431Y-96018639D01*
X158338517Y-95846565D01*
X159161986Y-95846565D01*
X159179371Y-96011971D01*
X159182101Y-96024814D01*
X159233493Y-96182981D01*
X159238839Y-96194989D01*
X159321989Y-96339010D01*
X159322151Y-96339232D01*
X159331607Y-96345057D01*
X159331685Y-96345056D01*
X159340966Y-96339429D01*
X159827583Y-95852812D01*
X159835197Y-95838868D01*
X159835066Y-95837035D01*
X159830815Y-95830420D01*
X159343018Y-95342623D01*
X159329074Y-95335009D01*
X159328998Y-95335014D01*
X159323725Y-95338600D01*
X159321989Y-95340990D01*
X159238839Y-95485011D01*
X159233493Y-95497019D01*
X159182101Y-95655186D01*
X159179371Y-95668029D01*
X159161986Y-95833435D01*
X159161986Y-95846565D01*
X158338517Y-95846565D01*
X158339207Y-95840000D01*
X158320431Y-95661361D01*
X158318386Y-95655066D01*
X158266967Y-95496813D01*
X158266966Y-95496811D01*
X158264925Y-95490529D01*
X158258882Y-95480062D01*
X158242000Y-95417061D01*
X158242000Y-95153301D01*
X159518862Y-95153301D01*
X159525765Y-95166160D01*
X160007188Y-95647583D01*
X160021132Y-95655197D01*
X160022965Y-95655066D01*
X160029580Y-95650815D01*
X160514558Y-95165837D01*
X160521171Y-95153726D01*
X160512343Y-95142107D01*
X160454694Y-95100222D01*
X160443322Y-95093656D01*
X160291385Y-95026009D01*
X160278897Y-95021952D01*
X160116216Y-94987372D01*
X160103156Y-94986000D01*
X159936844Y-94986000D01*
X159923784Y-94987372D01*
X159761103Y-95021952D01*
X159748615Y-95026009D01*
X159596678Y-95093656D01*
X159585306Y-95100222D01*
X159527286Y-95142376D01*
X159518862Y-95153301D01*
X158242000Y-95153301D01*
X158242000Y-94542666D01*
X158262002Y-94474545D01*
X158315658Y-94428052D01*
X158385932Y-94417948D01*
X158419249Y-94427560D01*
X158478607Y-94453988D01*
X158491103Y-94458048D01*
X158653784Y-94492628D01*
X158666844Y-94494000D01*
X158833156Y-94494000D01*
X158846216Y-94492628D01*
X159008897Y-94458048D01*
X159021385Y-94453991D01*
X159173322Y-94386344D01*
X159184694Y-94379778D01*
X159242714Y-94337624D01*
X159251138Y-94326699D01*
X159244235Y-94313840D01*
X158659490Y-93729095D01*
X158625464Y-93666783D01*
X158627299Y-93641132D01*
X158934803Y-93641132D01*
X158934934Y-93642965D01*
X158939185Y-93649580D01*
X159426982Y-94137377D01*
X159440926Y-94144991D01*
X159441002Y-94144986D01*
X159446275Y-94141400D01*
X159448011Y-94139010D01*
X159531161Y-93994989D01*
X159536507Y-93982981D01*
X159587899Y-93824814D01*
X159590629Y-93811971D01*
X159608014Y-93646565D01*
X159608014Y-93633435D01*
X159590629Y-93468029D01*
X159587899Y-93455186D01*
X159536507Y-93297019D01*
X159531161Y-93285011D01*
X159448011Y-93140990D01*
X159447849Y-93140768D01*
X159438393Y-93134943D01*
X159438315Y-93134944D01*
X159429034Y-93140571D01*
X158942417Y-93627188D01*
X158934803Y-93641132D01*
X158627299Y-93641132D01*
X158630529Y-93595968D01*
X158659490Y-93550905D01*
X159244558Y-92965837D01*
X159251171Y-92953726D01*
X159242343Y-92942107D01*
X159184694Y-92900222D01*
X159173322Y-92893656D01*
X159021385Y-92826009D01*
X159008897Y-92821952D01*
X158846216Y-92787372D01*
X158833156Y-92786000D01*
X158666844Y-92786000D01*
X158653784Y-92787372D01*
X158491103Y-92821952D01*
X158478607Y-92826012D01*
X158419249Y-92852440D01*
X158348882Y-92861875D01*
X158284585Y-92831769D01*
X158246772Y-92771680D01*
X158242000Y-92737334D01*
X158242000Y-92456000D01*
X158037593Y-92284562D01*
X157998253Y-92225462D01*
X157997110Y-92154474D01*
X158014599Y-92126274D01*
X159518829Y-92126274D01*
X159527657Y-92137893D01*
X159585306Y-92179778D01*
X159596678Y-92186344D01*
X159748615Y-92253991D01*
X159761103Y-92258048D01*
X159923784Y-92292628D01*
X159936844Y-92294000D01*
X160103156Y-92294000D01*
X160116216Y-92292628D01*
X160278897Y-92258048D01*
X160291385Y-92253991D01*
X160443322Y-92186344D01*
X160454694Y-92179778D01*
X160512714Y-92137624D01*
X160521138Y-92126699D01*
X160514235Y-92113840D01*
X160032812Y-91632417D01*
X160018868Y-91624803D01*
X160017035Y-91624934D01*
X160010420Y-91629185D01*
X159525442Y-92114163D01*
X159518829Y-92126274D01*
X158014599Y-92126274D01*
X158034528Y-92094138D01*
X158044492Y-92086093D01*
X158054922Y-92078515D01*
X158175113Y-91945029D01*
X158264925Y-91789471D01*
X158274686Y-91759431D01*
X158318391Y-91624918D01*
X158318391Y-91624917D01*
X158320431Y-91618639D01*
X158338517Y-91446565D01*
X159161986Y-91446565D01*
X159179371Y-91611971D01*
X159182101Y-91624814D01*
X159233493Y-91782981D01*
X159238839Y-91794989D01*
X159321989Y-91939010D01*
X159322151Y-91939232D01*
X159331607Y-91945057D01*
X159331685Y-91945056D01*
X159340966Y-91939429D01*
X159827583Y-91452812D01*
X159835197Y-91438868D01*
X159835066Y-91437035D01*
X159830815Y-91430420D01*
X159343018Y-90942623D01*
X159329074Y-90935009D01*
X159328998Y-90935014D01*
X159323725Y-90938600D01*
X159321989Y-90940990D01*
X159238839Y-91085011D01*
X159233493Y-91097019D01*
X159182101Y-91255186D01*
X159179371Y-91268029D01*
X159161986Y-91433435D01*
X159161986Y-91446565D01*
X158338517Y-91446565D01*
X158339207Y-91440000D01*
X158320431Y-91261361D01*
X158318386Y-91255066D01*
X158266967Y-91096813D01*
X158266966Y-91096811D01*
X158264925Y-91090529D01*
X158244620Y-91055359D01*
X158179531Y-90942623D01*
X158175113Y-90934971D01*
X158054922Y-90801485D01*
X158006302Y-90766160D01*
X157988603Y-90753301D01*
X159518862Y-90753301D01*
X159525765Y-90766160D01*
X160007188Y-91247583D01*
X160021132Y-91255197D01*
X160022965Y-91255066D01*
X160029580Y-91250815D01*
X160514558Y-90765837D01*
X160521171Y-90753726D01*
X160512343Y-90742107D01*
X160454694Y-90700222D01*
X160443322Y-90693656D01*
X160291385Y-90626009D01*
X160278897Y-90621952D01*
X160116216Y-90587372D01*
X160103156Y-90586000D01*
X159936844Y-90586000D01*
X159923784Y-90587372D01*
X159761103Y-90621952D01*
X159748615Y-90626009D01*
X159596678Y-90693656D01*
X159585306Y-90700222D01*
X159527286Y-90742376D01*
X159518862Y-90753301D01*
X157988603Y-90753301D01*
X157914946Y-90699786D01*
X157914945Y-90699785D01*
X157909604Y-90695905D01*
X157903576Y-90693221D01*
X157903574Y-90693220D01*
X157751541Y-90625531D01*
X157751540Y-90625531D01*
X157745510Y-90622846D01*
X157657661Y-90604173D01*
X157576269Y-90586872D01*
X157576264Y-90586872D01*
X157569812Y-90585500D01*
X157390188Y-90585500D01*
X157383736Y-90586872D01*
X157383731Y-90586872D01*
X157302339Y-90604173D01*
X157214490Y-90622846D01*
X157208460Y-90625531D01*
X157208459Y-90625531D01*
X157056427Y-90693220D01*
X157056425Y-90693221D01*
X157050397Y-90695905D01*
X157045056Y-90699785D01*
X157045055Y-90699786D01*
X156910422Y-90797602D01*
X156910420Y-90797604D01*
X156905078Y-90801485D01*
X156784887Y-90934971D01*
X156743667Y-91006366D01*
X156692284Y-91055359D01*
X156622570Y-91068794D01*
X156553579Y-91039905D01*
X156148572Y-90700222D01*
X150368000Y-85852000D01*
X146430000Y-85852000D01*
X146361879Y-85831998D01*
X146315386Y-85778342D01*
X146304000Y-85726000D01*
X146304000Y-82676000D01*
X146324002Y-82607879D01*
X146377658Y-82561386D01*
X146430000Y-82550000D01*
X151845226Y-82550000D01*
X151913347Y-82570002D01*
G37*
%TD.AperFunction*%
%TD*%
M02*
